<svg width="146" height="171" viewBox="0 0 146 171" fill="none" xmlns="http://www.w3.org/2000/svg">
<path d="M19.2607 16.7983L41.4054 4.01745L41.6114 3.91438C52.6322 -2.26988 67.67 -1.34224 84.4587 8.24337C100.114 17.3136 114.328 32.362 125.143 49.781C137.606 69.8798 145.434 93.0708 145.434 113.891C145.434 133.269 138.636 146.977 127.615 153.367H127.512L105.058 166.251C93.9345 173.363 78.2788 172.745 60.8721 162.644C27.2946 143.163 0 95.8537 0 56.996C0 36.794 7.41589 22.7764 19.2607 16.7983Z" fill="#53A5F8"/>
<path opacity="0.1" d="M105.577 165.942L127.619 153.368H127.722C138.743 146.977 145.54 133.372 145.54 113.891C145.54 93.0711 137.713 69.8801 125.25 49.7812L101.663 63.3866C114.126 83.4855 121.851 106.676 121.851 127.394C121.851 145.947 115.671 159.243 105.577 165.942Z" fill="black"/>
<path opacity="0.4" d="M19.6743 16.5945C30.4892 11.3379 45.0119 12.6778 60.8737 21.8511C76.6324 30.9214 90.8462 45.9697 101.661 63.3887L125.145 49.7834C114.433 32.3644 100.116 17.316 84.4603 8.34881C67.7746 -1.33986 52.6338 -2.2675 41.716 3.91676L41.51 4.01983L19.6743 16.5945Z" fill="white"/>
<path d="M25.2305 64.623C26.2605 64.8292 27.2904 65.0353 28.4234 65.3445C30.5864 66.066 32.6464 67.1998 34.7063 68.849C35.9423 69.7766 36.4573 71.0135 36.3543 72.9718C35.6333 81.4236 35.0153 89.9785 34.3973 98.5334C34.2943 100.183 33.7793 100.698 32.7494 100.595C32.2344 100.492 31.7194 100.492 31.2044 100.389C30.6894 100.286 30.1744 100.183 29.5564 100.183C28.1144 88.3294 26.6724 76.5793 25.2305 64.623Z" fill="white"/>
<mask id="mask0_1167_1680" style="mask-type:luminance" maskUnits="userSpaceOnUse" x="25" y="62" width="18" height="39">
<path d="M39.2412 98.9499L33.3702 100.599C33.9882 100.393 34.2972 99.7744 34.4002 98.5376C35.0182 89.9827 35.6362 81.4278 36.2542 72.8729C36.3572 71.0176 35.8422 69.7808 34.6062 68.75C32.5463 67.1009 30.3833 65.9671 28.3233 65.2456C27.2933 64.9364 26.2634 64.7303 25.1304 64.5241L31.0013 62.875C32.0313 63.0811 33.0612 63.2873 34.1942 63.5965C36.3572 64.318 38.4172 65.4518 40.4771 67.1009C41.7131 68.0285 42.2281 69.2654 42.1251 71.2238C41.5071 79.7786 40.8891 88.3335 40.2711 96.8884C40.1681 98.1253 39.8591 98.7437 39.2412 98.9499Z" fill="white"/>
</mask>
<g mask="url(#mask0_1167_1680)">
<path d="M25.231 64.6277L31.1019 62.9785C31.8229 63.1847 32.5438 63.2877 33.2648 63.4939L27.3939 65.143C26.6729 64.9369 25.9519 64.8338 25.231 64.6277Z" fill="#A8A8A8"/>
<path d="M27.3955 65.1452L33.2664 63.4961C33.5754 63.5992 33.7814 63.5992 34.0904 63.7022L28.2195 65.3514C27.9105 65.2483 27.6015 65.1452 27.3955 65.1452Z" fill="#ADADAD"/>
<path d="M28.2188 65.3503L34.0897 63.7012H34.1927C34.3987 63.8042 34.7077 63.9073 34.9136 63.9073L29.0427 65.5564C28.8367 65.4534 28.5277 65.3503 28.3217 65.3503H28.2188Z" fill="#B3B3B3"/>
<path d="M29.0415 65.6589L34.9124 64.0098C35.2214 64.1128 35.5304 64.2159 35.8394 64.319L29.9685 65.9681C29.6595 65.865 29.3505 65.762 29.0415 65.6589Z" fill="#B8B8B8"/>
<path d="M29.9683 65.9694L35.8392 64.3203C36.1482 64.4234 36.4572 64.6295 36.6632 64.7326L30.7922 66.3817C30.4833 66.2787 30.2773 66.0725 29.9683 65.9694Z" fill="#BDBDBD"/>
<path d="M30.792 66.3796L36.6629 64.7305C36.9719 64.8335 37.2809 65.0397 37.4869 65.1428L31.616 66.7919C31.41 66.6888 31.101 66.4827 30.792 66.3796Z" fill="#C2C2C2"/>
<path d="M31.7202 66.7927L37.5911 65.1436C37.9001 65.3497 38.2091 65.4528 38.4151 65.6589L32.5442 67.308C32.2352 67.205 31.9262 66.9988 31.7202 66.7927Z" fill="#C7C7C7"/>
<path d="M32.5435 67.3064L38.4144 65.6572C38.7234 65.8634 39.0324 66.0695 39.2384 66.1726L33.3674 67.8217C33.0585 67.7186 32.8525 67.5125 32.5435 67.3064Z" fill="#CCCCCC"/>
<path d="M33.3687 67.9255L39.2396 66.2764C39.5486 66.4825 39.8576 66.6886 40.0635 66.8948L34.1926 68.5439C33.9866 68.3378 33.6776 68.1316 33.3687 67.9255Z" fill="#D1D1D1"/>
<path d="M34.2935 68.5427L40.1644 66.8936C40.2674 66.9966 40.4734 67.0997 40.5764 67.2028L40.6794 67.3058L34.8084 68.955L34.7055 68.8519C34.4995 68.7488 34.3965 68.6458 34.2935 68.5427Z" fill="#D6D6D6"/>
<path d="M34.8096 68.9577L40.6805 67.3086C40.7835 67.3086 40.7835 67.4117 40.8865 67.4117L34.9126 69.0608L34.8096 68.9577Z" fill="#DBDBDB"/>
<path d="M34.9116 69.0603L40.7825 67.4111L40.8855 67.5142L35.0146 69.1633C35.0146 69.1633 35.0146 69.0603 34.9116 69.0603Z" fill="#E0E0E0"/>
<path d="M35.1206 69.1628L40.9915 67.5137L41.0945 67.6167L35.2236 69.2659C35.2236 69.2659 35.1206 69.2659 35.1206 69.1628Z" fill="#E6E6E6"/>
<path d="M35.2222 69.3708L41.0931 67.7217L41.1961 67.8248L35.3252 69.4739C35.3252 69.3708 35.2222 69.3708 35.2222 69.3708Z" fill="#EBEBEB"/>
<path d="M35.3262 69.4714L41.1971 67.8223L41.3001 67.9253L35.4292 69.5745C35.4292 69.5745 35.4292 69.4714 35.3262 69.4714Z" fill="#F0F0F0"/>
<path d="M35.4277 69.5759L41.2986 67.9268L41.4016 68.0298L35.5307 69.679C35.5307 69.679 35.5307 69.679 35.4277 69.5759Z" fill="#F5F5F5"/>
<path d="M35.5293 69.7819L41.4002 68.1328L41.5032 68.2359L35.6323 69.885C35.6323 69.885 35.6323 69.7819 35.5293 69.7819Z" fill="#FAFAFA"/>
<path d="M35.6328 69.8845L41.5037 68.2354L41.6067 68.3384L35.7358 69.9876L35.6328 69.8845Z" fill="white"/>
<path d="M35.7388 69.989L41.6097 68.3398L41.7127 68.4429L35.8418 70.092C35.8418 70.092 35.7388 70.092 35.7388 69.989Z" fill="white"/>
<path d="M35.8403 70.1941L41.7112 68.5449C41.8142 68.648 41.8142 68.7511 41.8142 68.8541L35.9433 70.5033C35.9433 70.4002 35.8403 70.2971 35.8403 70.1941Z" fill="white"/>
<path d="M35.9434 70.5027L41.8143 68.8535C41.8143 68.8535 41.8143 68.8535 41.8143 68.9566L35.9434 70.5027Z" fill="white"/>
<path d="M36.0454 70.5027L41.9163 68.8535C41.9163 68.9566 42.0193 68.9566 42.0193 69.0597L36.0454 70.7088C36.0454 70.7088 36.0454 70.6057 36.0454 70.5027Z" fill="white"/>
<path d="M36.0454 70.7077L41.9163 69.0586V69.1617L36.0454 70.8108C36.1484 70.8108 36.0454 70.8108 36.0454 70.7077Z" fill="white"/>
<path d="M36.147 70.9128L42.0179 69.2637V69.3667L36.147 71.0159C36.147 70.9128 36.147 70.9128 36.147 70.9128Z" fill="white"/>
<path d="M36.147 71.0183L42.0179 69.3691V69.4722L36.147 71.0183Z" fill="#FAFAFA"/>
<path d="M36.147 71.1208L42.0179 69.4717V69.5747L36.147 71.1208Z" fill="#F5F5F5"/>
<path d="M36.147 71.2253L42.0179 69.5762V69.6792L36.147 71.2253C36.25 71.2253 36.25 71.2253 36.147 71.2253Z" fill="#F0F0F0"/>
<path d="M36.2505 71.3269L42.1214 69.6777V69.7808L36.2505 71.4299C36.2505 71.3269 36.2505 71.3269 36.2505 71.3269Z" fill="#EBEBEB"/>
<path d="M36.2505 71.4314L42.1214 69.7822V69.8853L36.2505 71.5344C36.2505 71.4314 36.2505 71.4314 36.2505 71.4314Z" fill="#E6E6E6"/>
<path d="M36.2505 71.5319L42.1214 69.8828V69.9859L36.2505 71.635C36.2505 71.5319 36.2505 71.5319 36.2505 71.5319Z" fill="#E0E0E0"/>
<path d="M36.2505 71.6355L42.1214 69.9863V70.0894L36.2505 71.7385V71.6355Z" fill="#DBDBDB"/>
<path d="M36.2505 71.739L42.1214 70.0898V70.1929L36.2505 71.842C36.2505 71.842 36.2505 71.842 36.2505 71.739Z" fill="#D6D6D6"/>
<path d="M36.2505 71.9441L42.1214 70.2949V70.398L36.2505 72.0471V71.9441Z" fill="#D1D1D1"/>
<path d="M36.2505 72.0485L42.1214 70.3994C42.1214 70.5025 42.1214 70.5025 42.1214 70.6056L36.2505 72.2547C36.3535 72.1516 36.3535 72.1516 36.2505 72.0485Z" fill="#CCCCCC"/>
<path d="M36.356 72.2556L42.2269 70.6064C42.2269 70.7095 42.2269 70.7095 42.2269 70.8126L36.356 72.4617C36.356 72.3587 36.356 72.2556 36.356 72.2556Z" fill="#C7C7C7"/>
<path d="M36.356 72.3581L42.2269 70.709C42.2269 70.8121 42.2269 70.8121 42.2269 70.9151L36.356 72.5643C36.356 72.5643 36.356 72.4612 36.356 72.3581Z" fill="#C2C2C2"/>
<path d="M36.3541 72.5622L42.225 70.9131C42.225 71.0162 42.225 71.0162 42.225 71.1192L36.3541 72.7684C36.2511 72.7684 36.2511 72.6653 36.3541 72.5622Z" fill="#BDBDBD"/>
<path d="M36.2509 72.8728L42.1219 71.2236C42.1219 71.2236 42.1219 71.2236 42.1219 71.3267C41.5039 79.8816 40.8859 88.4365 40.2679 96.9914C40.2679 97.0945 40.2679 97.0945 40.2679 97.1975L34.397 98.8467C34.397 98.7436 34.397 98.7436 34.397 98.6405C35.015 89.9826 35.633 81.4277 36.2509 72.8728Z" fill="#B8B8B8"/>
<path d="M34.397 98.7448L40.2679 97.0957C40.2679 97.1988 40.2679 97.1988 40.2679 97.3018L34.397 98.951C34.397 98.951 34.397 98.8479 34.397 98.7448Z" fill="#B3B3B3"/>
<path d="M34.397 98.9519L40.2679 97.3027C40.2679 97.4058 40.2679 97.4058 40.2679 97.5089L34.397 99.158C34.397 99.158 34.397 99.0549 34.397 98.9519Z" fill="#ADADAD"/>
<path d="M34.397 99.1569L40.2679 97.5078C40.2679 97.6109 40.2679 97.6109 40.2679 97.714L34.397 99.3631C34.397 99.26 34.397 99.26 34.397 99.1569Z" fill="#A8A8A8"/>
<path d="M34.2935 99.363L40.1644 97.7139V97.8169L34.2935 99.4661V99.363Z" fill="#A3A3A3"/>
<path d="M34.2935 99.4655L40.1644 97.8164V97.9195L34.2935 99.5686C34.2935 99.5686 34.2935 99.5686 34.2935 99.4655Z" fill="#9E9E9E"/>
<path d="M34.2935 99.6706L40.1644 98.0215V98.1246L34.2935 99.7737C34.2935 99.6706 34.2935 99.6706 34.2935 99.6706Z" fill="#999999"/>
<path d="M34.1919 99.7761L40.0628 98.127V98.23L34.1919 99.8792V99.7761Z" fill="#949494"/>
<path d="M34.1928 99.8757L40.0638 98.2266C40.0638 98.2266 40.0638 98.3296 39.9608 98.3296L34.0898 99.9788C34.1928 99.9788 34.1928 99.8757 34.1928 99.8757Z" fill="#8F8F8F"/>
<path d="M34.0898 99.9812L39.9607 98.332C39.9607 98.332 39.9607 98.4351 39.8577 98.4351L33.9868 100.084C34.0898 100.084 34.0898 100.084 34.0898 99.9812Z" fill="#8A8A8A"/>
<path d="M34.0906 100.187L39.9616 98.5381C39.8586 98.7442 39.6526 98.9504 39.3436 99.0534L33.4727 100.703C33.6787 100.496 33.8846 100.393 34.0906 100.187Z" fill="#858585"/>
</g>
<mask id="mask1_1167_1680" style="mask-type:luminance" maskUnits="userSpaceOnUse" x="45" y="88" width="7" height="4">
<path d="M51.7008 90.0826C49.7438 90.598 47.7868 91.2164 45.8298 91.7318C45.5209 91.3195 45.2119 90.8041 45.0059 90.2888C46.9628 89.7734 48.9198 89.155 50.8768 88.6396C51.0828 89.155 51.3918 89.6704 51.7008 90.0826Z" fill="white"/>
</mask>
<g mask="url(#mask1_1167_1680)">
<path d="M45.0059 90.0827L50.8768 88.4336C50.8768 88.5367 50.8768 88.5367 50.9798 88.6397L45.1089 90.2889C45.1089 90.1858 45.0059 90.1858 45.0059 90.0827Z" fill="white"/>
<path d="M45.1074 90.2878L50.9783 88.6387C51.0813 88.8448 51.1843 89.051 51.1843 89.154L45.3134 90.8032C45.2104 90.597 45.2104 90.4939 45.1074 90.2878Z" fill="white"/>
<path d="M45.3164 90.8054L51.1873 89.1562C51.2903 89.2593 51.2903 89.3624 51.3933 89.4655L45.5224 91.1146C45.4194 91.0115 45.4194 90.9085 45.3164 90.8054Z" fill="white"/>
<path d="M45.5225 91.114L51.3934 89.4648C51.4964 89.5679 51.4964 89.671 51.5994 89.7741L45.7285 91.4232C45.6255 91.3201 45.5225 91.217 45.5225 91.114Z" fill="white"/>
<path d="M45.7256 91.4255L51.5965 89.7764C51.6995 89.8794 51.6995 89.9825 51.8025 89.9825L45.9316 91.6316C45.8286 91.5286 45.7256 91.4255 45.7256 91.4255Z" fill="#FAFAFA"/>
<path d="M45.8291 91.6296L51.7 89.9805C51.803 90.0835 51.803 90.0835 51.906 90.1866L46.0351 91.8357C45.9321 91.7327 45.9321 91.7327 45.8291 91.6296Z" fill="#F5F5F5"/>
</g>
<mask id="mask2_1167_1680" style="mask-type:luminance" maskUnits="userSpaceOnUse" x="54" y="111" width="7" height="3">
<path d="M54.2779 112.862L60.1488 111.213C60.0458 111.419 60.1488 111.831 60.1488 112.141L54.2779 113.79C54.1749 113.48 54.1749 112.965 54.2779 112.862Z" fill="white"/>
</mask>
<g mask="url(#mask2_1167_1680)">
<path d="M54.1743 113.274L60.0452 111.625C60.0452 111.625 60.0452 111.625 60.0452 111.728L54.1743 113.274Z" fill="#D1D1D1"/>
<path d="M54.1743 113.274L60.0452 111.625C60.0452 111.625 60.0452 111.625 60.0452 111.728L54.1743 113.274Z" fill="#D6D6D6"/>
<path d="M54.1743 113.38L60.0452 111.73C60.0452 111.73 60.0452 111.73 60.0452 111.834L54.1743 113.38Z" fill="#DBDBDB"/>
<path d="M54.1743 113.38L60.0452 111.73C60.0452 111.73 60.0452 111.73 60.0452 111.834L54.1743 113.38C54.1743 113.483 54.1743 113.483 54.1743 113.38Z" fill="#E0E0E0"/>
<path d="M54.1743 113.479L60.0452 111.83C60.0452 111.83 60.0452 111.83 60.0452 111.933L54.1743 113.479Z" fill="#E6E6E6"/>
<path d="M54.1743 113.585L60.0452 111.936C60.0452 111.936 60.0452 111.936 60.0452 112.039L54.1743 113.585Z" fill="#EBEBEB"/>
<path d="M54.2764 113.585L60.1473 111.936C60.1473 111.936 60.1473 111.936 60.1473 112.039L54.2764 113.585Z" fill="#F0F0F0"/>
<path d="M54.2764 113.686L60.1473 112.037C60.1473 112.037 60.1473 112.037 60.1473 112.14L54.2764 113.686Z" fill="#F5F5F5"/>
</g>
<mask id="mask3_1167_1680" style="mask-type:luminance" maskUnits="userSpaceOnUse" x="54" y="111" width="7" height="2">
<path d="M54.3798 112.755L60.2507 111.105C60.1477 111.105 60.1477 111.209 60.0447 111.209L54.1738 112.858C54.2768 112.755 54.3798 112.755 54.3798 112.755Z" fill="white"/>
</mask>
<g mask="url(#mask3_1167_1680)">
<path d="M54.3798 112.755L60.2507 111.105C60.1477 111.105 60.1477 111.209 60.0447 111.209L54.1738 112.858C54.2768 112.755 54.3798 112.755 54.3798 112.755Z" fill="#858585"/>
</g>
<mask id="mask4_1167_1680" style="mask-type:luminance" maskUnits="userSpaceOnUse" x="45" y="89" width="11" height="5">
<path d="M54.9999 91.6345C55.1029 91.6345 55.3089 91.5314 55.4119 91.5314L49.5409 93.1806C49.438 93.1806 49.232 93.2836 49.129 93.2836C48.82 93.3867 48.511 93.3867 48.202 93.2836C47.275 93.1806 46.451 92.5621 45.833 91.6345C47.79 91.1191 49.7469 90.5007 51.7039 89.9854C52.3219 90.913 53.1459 91.4283 54.0729 91.6345C54.3819 91.7376 54.6909 91.7376 54.9999 91.6345Z" fill="white"/>
</mask>
<g mask="url(#mask4_1167_1680)">
<path d="M45.833 91.6345L51.7039 89.9854C51.8069 90.0884 51.8069 90.0884 51.9099 90.1915L46.039 91.8406C45.936 91.7376 45.936 91.7376 45.833 91.6345Z" fill="#F5F5F5"/>
<path d="M46.0386 91.8396L51.9095 90.1904C52.0125 90.2935 52.0125 90.2935 52.1155 90.3966L46.2446 92.0457C46.1416 91.9426 46.0386 91.9426 46.0386 91.8396Z" fill="#F0F0F0"/>
<path d="M46.1436 92.0476L52.0145 90.3984C52.0145 90.5015 52.1175 90.5015 52.1175 90.6046L46.3496 92.1506C46.2466 92.1506 46.2466 92.0476 46.1436 92.0476Z" fill="#EBEBEB"/>
<path d="M46.3496 92.1521L52.2205 90.5029C52.2205 90.606 52.3235 90.606 52.3235 90.606L46.4526 92.2551C46.4526 92.2551 46.3496 92.2551 46.3496 92.1521Z" fill="#E6E6E6"/>
<path d="M46.4507 92.3571L52.3216 90.708L52.4246 90.8111L46.5537 92.4602C46.5537 92.4602 46.5537 92.3571 46.4507 92.3571Z" fill="#E0E0E0"/>
<path d="M46.5527 92.4587L52.4236 90.8096L52.5266 90.9126L46.6557 92.5618C46.6557 92.5618 46.6557 92.4587 46.5527 92.4587Z" fill="#DBDBDB"/>
<path d="M46.7622 92.5632L52.6331 90.9141L52.7361 91.0171L46.8652 92.6663C46.8652 92.6663 46.7622 92.6663 46.7622 92.5632Z" fill="#D6D6D6"/>
<path d="M46.8633 92.6657L52.7342 91.0166L52.8372 91.1197L46.9663 92.7688C46.9663 92.7688 46.9663 92.7688 46.8633 92.6657Z" fill="#D1D1D1"/>
<path d="M46.9668 92.7683L52.8377 91.1191L52.9407 91.2222L47.0698 92.8713C47.0698 92.8713 47.0698 92.8713 46.9668 92.7683Z" fill="#CCCCCC"/>
<path d="M47.1699 92.8718L53.0408 91.2227L53.1438 91.3257L47.2729 92.9749L47.1699 92.8718Z" fill="#C7C7C7"/>
<path d="M47.2739 92.9763L53.1448 91.3271L53.2478 91.4302L47.3769 93.0794C47.3769 92.9763 47.3769 92.9763 47.2739 92.9763Z" fill="#C2C2C2"/>
<path d="M47.481 93.0769L53.3519 91.4277C53.3519 91.4277 53.4549 91.4277 53.4549 91.5308L47.584 93.1799C47.584 93.0769 47.481 93.0769 47.481 93.0769Z" fill="#BDBDBD"/>
<path d="M47.5845 93.0769L53.4554 91.4277C53.4554 91.4277 53.5584 91.4277 53.5584 91.5308L47.6875 93.1799C47.6875 93.1799 47.6875 93.1799 47.5845 93.0769Z" fill="#B8B8B8"/>
<path d="M47.7886 93.1804L53.6595 91.5313C53.7625 91.5313 53.7625 91.5312 53.8655 91.6343L47.9946 93.2835C47.8916 93.1804 47.7886 93.1804 47.7886 93.1804Z" fill="#B3B3B3"/>
<path d="M47.8921 93.1804L53.763 91.5312C53.866 91.5312 53.866 91.5312 53.969 91.5312L48.0981 93.1804C47.9951 93.2835 47.9951 93.2835 47.8921 93.1804Z" fill="#ADADAD"/>
<path d="M48.0991 93.2829L53.97 91.6338C54.073 91.6338 54.073 91.6338 54.176 91.6338L48.3051 93.2829C48.2021 93.2829 48.0991 93.2829 48.0991 93.2829Z" fill="#A8A8A8"/>
<path d="M48.2031 93.2829L54.074 91.6338C54.074 91.6338 54.074 91.6338 54.177 91.6338H54.28L48.4091 93.386C48.4091 93.386 48.3061 93.2829 48.2031 93.2829C48.3061 93.2829 48.3061 93.2829 48.2031 93.2829Z" fill="#A3A3A3"/>
<path d="M48.4062 93.3874L54.2772 91.7383C54.3802 91.7383 54.3802 91.7383 54.4832 91.7383L48.6122 93.3874C48.6122 93.3874 48.5092 93.3874 48.4062 93.3874Z" fill="#9E9E9E"/>
<path d="M48.6157 93.3874L54.4866 91.7383C54.5896 91.7383 54.6926 91.7383 54.6926 91.7383L48.8217 93.3874C48.8217 93.3874 48.7187 93.3874 48.6157 93.3874Z" fill="#999999"/>
<path d="M48.9224 93.3874L54.7933 91.7383C54.8963 91.7383 54.9993 91.7383 55.1023 91.7383L49.2314 93.3874C49.0254 93.3874 49.0254 93.3874 48.9224 93.3874Z" fill="#949494"/>
<path d="M49.1299 93.2835L55.0008 91.6343C55.0008 91.6343 55.0008 91.6343 55.1038 91.6343C55.2068 91.6343 55.4128 91.5312 55.5158 91.5312L49.6449 93.1804C49.4389 93.2835 49.3359 93.2835 49.1299 93.2835Z" fill="#8F8F8F"/>
<path d="M49.6436 93.1804L55.4115 91.5312L49.6436 93.1804Z" fill="#8A8A8A"/>
</g>
<mask id="mask5_1167_1680" style="mask-type:luminance" maskUnits="userSpaceOnUse" x="37" y="73" width="17" height="4">
<path d="M37.3882 74.7282L43.2591 73.0791C46.555 73.5945 49.851 74.1098 53.1469 74.6252L47.276 76.2743C43.9801 75.6559 40.6841 75.2436 37.3882 74.7282Z" fill="white"/>
</mask>
<g mask="url(#mask5_1167_1680)">
<path d="M37.3882 74.7282L43.2591 73.0791C46.555 73.5945 49.851 74.1098 53.1469 74.6252L47.276 76.2743C43.9801 75.6559 40.6841 75.2436 37.3882 74.7282Z" fill="#A3A3A3"/>
</g>
<mask id="mask6_1167_1680" style="mask-type:luminance" maskUnits="userSpaceOnUse" x="44" y="74" width="10" height="17">
<path d="M50.877 88.5362C48.9201 89.0516 46.9631 89.67 45.0061 90.1853C44.4911 89.0516 44.1821 87.6086 44.1821 86.1656C44.1821 83.4857 44.9031 81.4243 45.7271 79.3629C46.1391 78.2291 46.6541 77.1984 47.1691 76.1677L53.04 74.5186C52.525 75.6523 52.01 76.683 51.598 77.7138C50.774 79.6721 50.053 81.7335 50.053 84.5164C50.053 86.0625 50.362 87.4024 50.877 88.5362Z" fill="white"/>
</mask>
<g mask="url(#mask6_1167_1680)">
<path d="M47.273 76.1677L53.1439 74.5186C52.6289 75.5493 52.114 76.58 51.702 77.6107L45.8311 79.3629C46.243 78.2291 46.758 77.3015 47.273 76.1677Z" fill="#8F8F8F"/>
<path d="M45.8314 79.363L51.7023 77.7139V77.8169C51.4963 78.3323 51.2903 78.9507 51.0843 79.5691L45.2134 81.2183C45.3164 80.5999 45.5224 79.9814 45.8314 79.363Z" fill="#949494"/>
<path d="M45.1098 81.115L50.9807 79.4658C50.8777 79.775 50.7747 80.0842 50.6717 80.3935L44.8008 82.0426C44.9038 81.7334 45.0068 81.4242 45.1098 81.115Z" fill="#999999"/>
<path d="M44.8017 82.0427L50.6726 80.3936C50.5696 80.5997 50.5696 80.8058 50.4666 81.115L44.5957 82.7642C44.6987 82.558 44.8017 82.3519 44.8017 82.0427Z" fill="#9E9E9E"/>
<path d="M44.6987 82.7654L50.5696 81.1162C50.5696 81.3224 50.4666 81.5285 50.4666 81.7346L44.5957 83.3838C44.5957 83.1776 44.5957 82.9715 44.6987 82.7654Z" fill="#A3A3A3"/>
<path d="M44.5927 83.3845L50.4637 81.7354C50.4637 81.9415 50.3607 82.0446 50.3607 82.2507L44.4897 83.8998C44.4897 83.6937 44.4897 83.4876 44.5927 83.3845Z" fill="#A8A8A8"/>
<path d="M44.4897 83.8972L50.3606 82.248C50.3606 82.3511 50.3606 82.5573 50.2576 82.7634L44.3867 84.4125C44.3867 84.2064 44.3867 84.0003 44.4897 83.8972Z" fill="#ADADAD"/>
<path d="M44.3867 84.3083L50.2576 82.6592C50.2576 82.7623 50.2576 82.9684 50.2576 83.0715L44.3867 84.7206C44.3867 84.6175 44.3867 84.5145 44.3867 84.3083Z" fill="#B3B3B3"/>
<path d="M44.3882 84.7234L50.2591 83.0742C50.2591 83.1773 50.2591 83.3834 50.2591 83.4865L44.2852 85.2387C44.2852 85.0326 44.2852 84.9295 44.3882 84.7234Z" fill="#B8B8B8"/>
<path d="M44.2852 85.237L50.1561 83.5879C50.1561 83.691 50.1561 83.8971 50.1561 84.0002L44.2852 85.6493C44.2852 85.4432 44.2852 85.3401 44.2852 85.237Z" fill="#BDBDBD"/>
<path d="M44.2852 85.6491L50.1561 84C50.1561 84.1031 50.1561 84.3092 50.1561 84.4123L44.2852 86.0614C44.2852 85.8553 44.2852 85.7522 44.2852 85.6491Z" fill="#C2C2C2"/>
<path d="M44.2852 86.0622L50.1561 84.4131C50.1561 84.5162 50.1561 84.5162 50.1561 84.6192C50.1561 84.7223 50.1561 84.7223 50.1561 84.8254L44.2852 86.3714C44.2852 86.2684 44.2852 86.2684 44.2852 86.1653V86.0622Z" fill="#C7C7C7"/>
<path d="M44.2852 86.3728L50.1561 84.7236C50.1561 84.8267 50.1561 84.9298 50.1561 85.0328L44.2852 86.682C44.2852 86.5789 44.2852 86.4758 44.2852 86.3728Z" fill="#CCCCCC"/>
<path d="M44.2852 86.6794L50.1561 85.0303C50.1561 85.1333 50.1561 85.2364 50.1561 85.3395L44.2852 86.9886C44.2852 86.8856 44.2852 86.7825 44.2852 86.6794Z" fill="#D1D1D1"/>
<path d="M44.2852 86.9909L50.1561 85.3418C50.1561 85.4449 50.1561 85.5479 50.1561 85.651L44.2852 87.3001C44.2852 87.1971 44.2852 87.094 44.2852 86.9909Z" fill="#D6D6D6"/>
<path d="M44.2852 87.2995L50.1561 85.6504C50.1561 85.7535 50.1561 85.8565 50.1561 85.9596L44.2852 87.6087C44.3882 87.4026 44.3882 87.4026 44.2852 87.2995Z" fill="#DBDBDB"/>
<path d="M44.3867 87.5046L50.2576 85.8555C50.2576 85.9585 50.2576 86.0616 50.2576 86.1647L44.3867 87.8138C44.3867 87.7107 44.3867 87.6077 44.3867 87.5046Z" fill="#E0E0E0"/>
<path d="M44.3867 87.8142L50.2576 86.165C50.2576 86.2681 50.2576 86.3712 50.2576 86.3712L44.3867 88.0203C44.3867 88.0203 44.3867 87.9172 44.3867 87.8142Z" fill="#E6E6E6"/>
<path d="M44.3867 88.0193L50.2576 86.3701C50.2576 86.4732 50.2576 86.5763 50.2576 86.5763L44.3867 88.2254C44.4897 88.2254 44.4897 88.1223 44.3867 88.0193Z" fill="#EBEBEB"/>
<path d="M44.4897 88.3288L50.3607 86.6797C50.3607 86.7828 50.3607 86.8858 50.3607 86.8858L44.4897 88.535C44.4897 88.4319 44.4897 88.3288 44.4897 88.3288Z" fill="#F0F0F0"/>
<path d="M44.4897 88.5368L50.3607 86.8877C50.3607 86.9908 50.3607 86.9908 50.4637 87.0938L44.5927 88.743C44.5927 88.6399 44.5927 88.6399 44.4897 88.5368Z" fill="#F5F5F5"/>
<path d="M44.5957 88.7429L50.4666 87.0938C50.4666 87.1968 50.4666 87.2999 50.5696 87.2999L44.6987 88.949C44.5957 88.949 44.5957 88.846 44.5957 88.7429Z" fill="#FAFAFA"/>
<path d="M44.5957 89.0505L50.4666 87.4014C50.4666 87.5044 50.4666 87.6075 50.5696 87.6075L44.6987 89.2566C44.6987 89.1536 44.6987 89.0505 44.5957 89.0505Z" fill="white"/>
<path d="M44.6973 89.2566L50.5682 87.6074C50.5682 87.7105 50.6712 87.8136 50.6712 87.9166L44.8003 89.5658C44.8003 89.4627 44.6973 89.3596 44.6973 89.2566Z" fill="white"/>
<path d="M44.8008 89.5681L50.6717 87.9189C50.7747 88.1251 50.7747 88.3312 50.8777 88.5374L45.0068 90.1865C44.9038 89.9804 44.9038 89.7742 44.8008 89.5681Z" fill="white"/>
<path d="M45.0039 90.0818L50.8748 88.4326C50.8748 88.5357 50.8748 88.5357 50.9778 88.6388L45.1069 90.2879C45.1069 90.1848 45.0039 90.1848 45.0039 90.0818Z" fill="white"/>
</g>
<path d="M66.7403 122.859C66.7403 122.756 66.7403 122.756 66.7403 122.756V122.653V122.55V122.447V122.344V122.241C66.7403 122.138 66.7403 122.138 66.6373 122.034C66.6373 121.931 66.5343 121.828 66.5343 121.622V121.519V121.416V121.313C66.5343 121.21 66.4313 121.21 66.4313 121.107C66.4313 121.004 66.3283 121.004 66.3283 120.901C66.3283 120.798 66.2253 120.798 66.2253 120.695C66.2253 120.695 66.2253 120.695 66.2253 120.591C64.4743 118.015 62.7234 115.438 60.8694 112.861C60.8694 112.861 60.8694 112.861 60.8694 112.758C60.8694 112.655 60.7664 112.655 60.7664 112.552C60.6634 112.449 60.6634 112.346 60.5604 112.14L54.7925 113.789C54.7925 113.789 54.7925 113.789 54.7925 113.892V113.995C54.7925 113.995 54.7925 113.995 54.7925 114.098V114.201C54.7925 114.201 54.7925 114.304 54.8955 114.304L54.9985 114.407L55.1015 114.51C56.8524 117.087 58.7064 119.664 60.4574 122.241C60.5604 122.447 60.7664 122.653 60.8694 122.962C60.8694 122.962 60.8694 122.962 60.8694 123.065C60.9724 123.271 61.0754 123.581 61.1784 123.787C61.2814 123.993 61.2814 124.302 61.3844 124.508C61.3844 124.714 61.3844 125.024 61.3844 125.23C61.3844 125.436 61.3844 125.642 61.2814 125.848C61.2814 126.054 61.1784 126.26 61.0754 126.363C60.9724 126.467 60.9724 126.57 60.8694 126.673L60.7664 126.776C60.6634 126.879 60.4574 126.982 60.3544 126.982L66.2253 125.333C66.4313 125.333 66.5343 125.23 66.6373 125.127L66.7403 125.024C66.8433 124.92 66.8433 124.92 66.9463 124.817C66.9463 124.817 66.9463 124.817 66.9463 124.714C66.9463 124.714 66.9463 124.714 66.9463 124.611C66.9463 124.611 66.9463 124.508 67.0493 124.508V124.405V124.302V124.199V124.096V123.993V123.89V123.787V123.684V123.581C67.0493 123.581 67.0493 123.581 67.0493 123.477V123.374V123.271V123.168V123.065C66.7403 123.065 66.7403 123.065 66.7403 122.859C66.7403 122.962 66.7403 122.962 66.7403 122.859Z" fill="url(#paint0_linear_1167_1680)"/>
<mask id="mask7_1167_1680" style="mask-type:luminance" maskUnits="userSpaceOnUse" x="58" y="106" width="7" height="4">
<path d="M58.4018 108.121L64.2727 106.472C64.2727 106.472 64.1697 106.472 64.1697 106.575C64.0667 106.781 64.1697 107.296 64.2727 107.709L58.4018 109.358C58.2988 109.048 58.2988 108.533 58.2988 108.224C58.2988 108.224 58.2988 108.121 58.4018 108.121Z" fill="white"/>
</mask>
<g mask="url(#mask7_1167_1680)">
<path d="M58.4005 108.121L64.2714 106.472C64.2714 106.472 64.1684 106.472 64.1684 106.575L58.4005 108.121C58.2975 108.121 58.2975 108.121 58.4005 108.121Z" fill="#858585"/>
<path d="M58.1934 108.638L64.0643 106.989C64.0643 106.989 64.0643 106.989 64.0643 107.092L58.1934 108.638Z" fill="#CCCCCC"/>
<path d="M58.1934 108.638L64.0643 106.989C64.0643 106.989 64.0643 106.989 64.0643 107.092L58.1934 108.638Z" fill="#D1D1D1"/>
<path d="M58.1934 108.739L64.0643 107.09C64.0643 107.09 64.0643 107.09 64.0643 107.193L58.1934 108.739Z" fill="#D6D6D6"/>
<path d="M58.1934 108.739L64.0643 107.09C64.0643 107.09 64.0643 107.09 64.0643 107.193L58.1934 108.739C58.1934 108.842 58.1934 108.842 58.1934 108.739Z" fill="#DBDBDB"/>
<path d="M58.1934 108.843L64.0643 107.194V107.297L58.1934 108.843C58.1934 108.947 58.1934 108.947 58.1934 108.843Z" fill="#E0E0E0"/>
<path d="M58.1934 108.945L64.0643 107.296V107.399L58.1934 108.945Z" fill="#E6E6E6"/>
<path d="M58.2954 109.05L64.1663 107.4V107.503L58.2954 109.05Z" fill="#EBEBEB"/>
<path d="M58.2954 109.152L64.1663 107.503V107.606L58.2954 109.152Z" fill="#F0F0F0"/>
<path d="M58.2954 109.152L64.1663 107.503V107.606L58.2954 109.152C58.2954 109.255 58.2954 109.255 58.2954 109.152Z" fill="#F5F5F5"/>
</g>
<mask id="mask8_1167_1680" style="mask-type:luminance" maskUnits="userSpaceOnUse" x="49" y="84" width="13" height="8">
<path d="M55.2058 86.2663L61.0768 84.6172H60.9738C59.2228 85.1325 57.9868 86.6786 56.8538 88.4308C56.3388 89.1523 55.8238 89.6677 55.1028 89.8738L49.2319 91.5229C49.9529 91.3168 50.4679 90.8015 50.9829 90.08C52.1159 88.3277 53.4549 86.7817 55.2058 86.2663Z" fill="white"/>
</mask>
<g mask="url(#mask8_1167_1680)">
<path d="M55.2058 86.2663L61.0768 84.6172H60.9738C59.2228 85.1325 57.9868 86.6786 56.8538 88.4308C56.3388 89.1523 55.8238 89.6677 55.1028 89.8738L49.2319 91.5229C49.9529 91.3168 50.4679 90.8015 50.9829 90.08C52.1159 88.3277 53.4549 86.7817 55.2058 86.2663Z" fill="#858585"/>
</g>
<path d="M71.3753 119.664V119.561V119.458V119.355V119.252V119.148V119.045C71.3753 118.942 71.3753 118.942 71.2723 118.839C71.2723 118.736 71.1693 118.633 71.1693 118.427V118.324C71.1693 118.324 71.1693 118.324 71.1693 118.221V118.118C71.1693 118.015 71.0663 117.912 70.9633 117.809C70.9633 117.705 70.8603 117.602 70.8603 117.499C70.8603 117.396 70.7573 117.396 70.7573 117.293C70.5513 116.984 70.3453 116.675 70.1393 116.366C68.3884 113.686 66.6374 111.109 64.8864 108.429C64.8864 108.429 64.8864 108.326 64.7834 108.326C64.7834 108.223 64.6804 108.223 64.6804 108.12C64.6804 108.12 64.6804 108.12 64.6804 108.017C64.5774 107.914 64.4744 107.811 64.4744 107.604L58.6035 109.254C58.6035 109.254 58.6035 109.254 58.6035 109.357C58.6035 109.357 58.6035 109.357 58.6035 109.46C58.6035 109.46 58.6035 109.46 58.6035 109.563C58.7065 109.666 58.7065 109.769 58.8095 109.872C60.7665 112.758 62.7234 115.747 64.6804 118.736C64.8864 119.045 64.9894 119.252 65.0924 119.561V119.664C65.1954 119.973 65.2984 120.282 65.4014 120.488C65.5044 120.798 65.5044 121.107 65.6074 121.416C65.6074 121.725 65.6074 122.034 65.6074 122.241C65.6074 122.55 65.6074 122.756 65.5044 122.962C65.4014 123.168 65.4014 123.374 65.2984 123.581C65.1954 123.684 65.0924 123.787 64.9894 123.89L64.8864 123.993C64.7834 124.096 64.5774 124.199 64.3714 124.302L70.2423 122.653C70.4483 122.55 70.5513 122.55 70.7573 122.344L70.8603 122.241C70.9633 122.138 71.0663 122.034 71.0663 121.931C71.0663 121.931 71.0663 121.931 71.0663 121.828V121.725C71.0663 121.622 71.0663 121.622 71.1693 121.519C71.1693 121.519 71.1693 121.416 71.2723 121.416V121.313C71.2723 121.313 71.2723 121.313 71.2723 121.21V121.107V121.004V120.901V120.798V120.695C71.2723 120.695 71.2723 120.695 71.2723 120.591C71.2723 120.591 71.2723 120.591 71.2723 120.488V120.385V120.282V120.179V120.076V119.973V119.87C71.3753 119.767 71.3753 119.767 71.3753 119.664Z" fill="url(#paint1_linear_1167_1680)"/>
<mask id="mask9_1167_1680" style="mask-type:luminance" maskUnits="userSpaceOnUse" x="61" y="101" width="7" height="4">
<path d="M61.3828 102.967L67.2537 101.318C67.2537 101.731 67.3567 102.143 67.4597 102.555C67.4597 102.761 67.6657 102.864 67.7687 103.071L61.8978 104.72C61.7948 104.514 61.5888 104.41 61.5888 104.204C61.3828 103.792 61.3828 103.38 61.3828 102.967Z" fill="white"/>
</mask>
<g mask="url(#mask9_1167_1680)">
<path d="M61.3828 102.967L67.2537 101.318C67.2537 101.525 67.2537 101.731 67.3567 102.04L61.4858 103.689C61.3828 103.38 61.3828 103.174 61.3828 102.967Z" fill="#DBDBDB"/>
<path d="M61.3828 103.585L67.2537 101.936C67.2537 102.039 67.2537 102.039 67.2537 102.142L61.3828 103.791C61.4858 103.791 61.4858 103.688 61.3828 103.585Z" fill="#E0E0E0"/>
<path d="M61.4844 103.792L67.3553 102.143V102.246L61.4844 103.895C61.4844 103.895 61.4844 103.895 61.4844 103.792Z" fill="#E6E6E6"/>
<path d="M61.4844 103.999L67.3553 102.35V102.453L61.4844 104.102C61.4844 103.999 61.4844 103.999 61.4844 103.999Z" fill="#EBEBEB"/>
<path d="M61.4844 104.101L67.3553 102.452V102.555L61.4844 104.101C61.4844 104.204 61.4844 104.204 61.4844 104.101Z" fill="#F0F0F0"/>
<path d="M61.4844 104.204L67.3553 102.555L61.4844 104.204Z" fill="#F5F5F5"/>
<path d="M61.4844 104.204L67.3553 102.555L61.4844 104.204Z" fill="#FAFAFA"/>
<path d="M61.4844 104.204L67.3553 102.555L61.4844 104.204Z" fill="white"/>
<path d="M61.5879 104.308L67.3558 102.659L61.5879 104.308Z" fill="white"/>
<path d="M61.5879 104.409L67.4588 102.76C67.4588 102.76 67.4588 102.76 67.4588 102.863L61.5879 104.409Z" fill="#F5F5F5"/>
<path d="M61.6934 104.409L67.5643 102.76L67.6673 102.863L61.7964 104.512C61.6934 104.512 61.6934 104.512 61.6934 104.409Z" fill="#F0F0F0"/>
<path d="M61.7949 104.616L67.6658 102.967C67.6658 102.967 67.6658 102.967 67.7688 103.07L61.7949 104.616Z" fill="#F5F5F5"/>
<path d="M61.7949 104.72L67.6658 103.071L61.8979 104.72H61.7949Z" fill="white"/>
</g>
<mask id="mask10_1167_1680" style="mask-type:luminance" maskUnits="userSpaceOnUse" x="53" y="71" width="8" height="3">
<path d="M53.0425 73.2806L58.9134 71.6315C59.3254 71.5284 59.7374 71.4253 60.0464 71.3223L54.1755 72.9714C53.7635 73.0745 53.3515 73.1775 53.0425 73.2806Z" fill="white"/>
</mask>
<g mask="url(#mask10_1167_1680)">
<path d="M53.0425 73.2806L58.9134 71.6315C59.3254 71.5284 59.6344 71.4253 60.0464 71.3223L54.1755 72.9714C53.7635 73.0745 53.3515 73.1775 53.0425 73.2806Z" fill="#8F8F8F"/>
</g>
<path d="M74.8767 119.558L69.0058 121.207C69.1088 121.207 69.1088 121.207 69.2118 121.104C70.7568 120.486 70.7568 117.394 69.3148 115.229C66.8429 111.725 64.3709 108.117 61.8989 104.613L67.7698 102.964C70.2418 106.468 72.7138 109.973 75.1857 113.58C76.7307 115.745 76.6277 118.837 75.0827 119.455C74.9797 119.558 74.9797 119.558 74.8767 119.558Z" fill="url(#paint2_linear_1167_1680)"/>
<mask id="mask11_1167_1680" style="mask-type:luminance" maskUnits="userSpaceOnUse" x="61" y="102" width="16" height="20">
<path d="M74.8743 119.558L69.0034 121.207C69.1064 121.207 69.1064 121.207 69.2094 121.104C70.7543 120.486 70.7544 117.394 69.3124 115.229C66.8404 111.725 64.3684 108.117 61.8965 104.613L67.7674 102.964C70.2394 106.468 72.7113 109.973 75.1833 113.58C76.7283 115.745 76.6253 118.837 75.0803 119.455C74.9773 119.558 74.9773 119.558 74.8743 119.558Z" fill="white"/>
</mask>
<g mask="url(#mask11_1167_1680)">
<path d="M61.896 104.718L67.7669 103.069C70.2389 106.574 72.7108 110.078 75.1828 113.686L75.2858 113.789L69.4149 115.438L69.3119 115.335C66.8399 111.727 64.368 108.223 61.896 104.718Z" fill="url(#paint3_linear_1167_1680)"/>
<path d="M69.416 115.437L75.2869 113.788C75.2869 113.891 75.3899 113.891 75.3899 113.994L69.519 115.643C69.519 115.54 69.416 115.54 69.416 115.437Z" fill="url(#paint4_linear_1167_1680)"/>
<path d="M69.52 115.642L75.3909 113.993C75.3909 114.096 75.4939 114.199 75.4939 114.199L69.623 115.848C69.623 115.848 69.623 115.745 69.52 115.642Z" fill="url(#paint5_linear_1167_1680)"/>
<path d="M69.7227 115.955L75.5936 114.306C75.6966 114.409 75.6966 114.615 75.7996 114.718L69.9287 116.367C69.8257 116.161 69.7227 116.058 69.7227 115.955Z" fill="url(#paint6_linear_1167_1680)"/>
<path d="M69.8262 116.26L75.6971 114.611C75.6971 114.611 75.6971 114.611 75.6971 114.714L69.8262 116.26C69.9292 116.364 69.8262 116.364 69.8262 116.26Z" fill="url(#paint7_linear_1167_1680)"/>
<path d="M69.9277 116.366L75.7986 114.717C75.9016 114.923 75.9016 115.026 76.0046 115.232L70.1337 116.881C70.0307 116.675 69.9277 116.572 69.9277 116.366Z" fill="url(#paint8_linear_1167_1680)"/>
<path d="M70.1372 116.88L76.0081 115.23C76.0081 115.334 76.0081 115.334 76.1111 115.437L70.2402 117.086C70.1372 116.983 70.1372 116.983 70.1372 116.88Z" fill="url(#paint9_linear_1167_1680)"/>
<path d="M70.1372 117.088L76.0081 115.438C76.0081 115.542 76.0081 115.542 76.0081 115.645L70.1372 117.294C70.1372 117.191 70.1372 117.088 70.1372 117.088Z" fill="url(#paint10_linear_1167_1680)"/>
<path d="M70.2393 117.189L76.1102 115.54C76.1102 115.643 76.1102 115.643 76.1102 115.746L70.2393 117.395C70.2393 117.292 70.2393 117.292 70.2393 117.189Z" fill="url(#paint11_linear_1167_1680)"/>
<path d="M70.2393 117.397L76.1102 115.748V115.851L70.2393 117.5V117.397Z" fill="url(#paint12_linear_1167_1680)"/>
<path d="M70.2393 117.502L76.1102 115.853V115.956L70.2393 117.605C70.3423 117.605 70.2393 117.605 70.2393 117.502Z" fill="url(#paint13_linear_1167_1680)"/>
<path d="M70.3403 117.707L76.2112 116.058V116.161L70.3403 117.81V117.707Z" fill="url(#paint14_linear_1167_1680)"/>
<path d="M70.3403 117.808L76.2112 116.159V116.262L70.3403 117.911V117.808Z" fill="url(#paint15_linear_1167_1680)"/>
<path d="M70.3403 117.912L76.2112 116.263V116.366L70.3403 118.015C70.3403 118.015 70.3403 118.015 70.3403 117.912Z" fill="url(#paint16_linear_1167_1680)"/>
<path d="M70.3403 118.119L76.2112 116.47V116.573L70.3403 118.222V118.119Z" fill="url(#paint17_linear_1167_1680)"/>
<path d="M70.3403 118.22L76.2112 116.571V116.674L70.3403 118.324C70.3403 118.324 70.3403 118.323 70.3403 118.22Z" fill="url(#paint18_linear_1167_1680)"/>
<path d="M70.4443 118.325L76.3152 116.676V116.779L70.4443 118.428C70.4443 118.428 70.4443 118.428 70.4443 118.325Z" fill="url(#paint19_linear_1167_1680)"/>
<path d="M70.4443 118.53L76.3152 116.881V116.984L70.4443 118.633V118.53Z" fill="url(#paint20_linear_1167_1680)"/>
<path d="M70.4443 118.634L76.3152 116.984V117.087L70.4443 118.737C70.4443 118.737 70.4443 118.737 70.4443 118.634Z" fill="url(#paint21_linear_1167_1680)"/>
<path d="M70.4443 118.738L76.3152 117.089V117.192L70.4443 118.841C70.4443 118.841 70.4443 118.841 70.4443 118.738Z" fill="url(#paint22_linear_1167_1680)"/>
<path d="M70.4443 118.943L76.3152 117.294V117.397L70.4443 119.046V118.943Z" fill="url(#paint23_linear_1167_1680)"/>
<path d="M70.4467 119.044L76.3176 117.395V117.498L70.4467 119.147C70.3437 119.147 70.4467 119.044 70.4467 119.044Z" fill="url(#paint24_linear_1167_1680)"/>
<path d="M70.3403 119.148L76.2112 117.499V117.602L70.3403 119.251C70.3403 119.251 70.3403 119.251 70.3403 119.148Z" fill="url(#paint25_linear_1167_1680)"/>
<path d="M70.3403 119.356L76.2112 117.707V117.81L70.3403 119.459C70.3403 119.356 70.3403 119.356 70.3403 119.356Z" fill="url(#paint26_linear_1167_1680)"/>
<path d="M70.3403 119.457L76.2112 117.808V117.911L70.3403 119.56V119.457Z" fill="url(#paint27_linear_1167_1680)"/>
<path d="M70.3403 119.561L76.2112 117.912V118.015L70.3403 119.664C70.3403 119.664 70.3403 119.664 70.3403 119.561Z" fill="url(#paint28_linear_1167_1680)"/>
<path d="M70.3422 119.663L76.2131 118.014V118.117L70.3422 119.766C70.2392 119.766 70.3422 119.766 70.3422 119.663Z" fill="url(#paint29_linear_1167_1680)"/>
<path d="M70.2393 119.87L76.1102 118.221V118.324L70.2393 119.973V119.87Z" fill="url(#paint30_linear_1167_1680)"/>
<path d="M70.2402 119.972L76.1111 118.323C76.1111 118.426 76.1111 118.426 76.0081 118.426L70.1372 120.075C70.1372 120.075 70.2402 120.075 70.2402 119.972Z" fill="url(#paint31_linear_1167_1680)"/>
<path d="M70.1367 120.18L76.0076 118.531C76.0076 118.634 76.0076 118.634 75.9046 118.737L70.0337 120.387C70.1367 120.283 70.1367 120.18 70.1367 120.18Z" fill="url(#paint32_linear_1167_1680)"/>
<path d="M70.1367 120.281L76.0076 118.632C76.0076 118.735 75.9046 118.735 75.9046 118.838L70.0337 120.487C70.0337 120.384 70.0337 120.384 70.1367 120.281Z" fill="url(#paint33_linear_1167_1680)"/>
<path d="M70.0325 120.488L75.9034 118.839C75.6974 119.148 75.4914 119.354 75.1824 119.457C75.0794 119.457 75.0794 119.457 74.9764 119.56L69.1055 121.209C69.2085 121.209 69.2085 121.209 69.3115 121.106C69.5175 121.003 69.8265 120.797 70.0325 120.488Z" fill="url(#paint34_linear_1167_1680)"/>
</g>
<path d="M80.5431 112.448C80.5431 112.345 80.5431 112.345 80.5431 112.242V112.139V112.036V111.933C80.5431 111.933 80.5431 111.933 80.5431 111.83C80.5431 111.83 80.5431 111.83 80.5431 111.727C80.5431 111.624 80.5431 111.624 80.4401 111.521C80.4401 111.418 80.3371 111.315 80.3371 111.212V111.109C80.2341 110.902 80.2341 110.799 80.1311 110.593C80.1311 110.593 80.1311 110.593 80.1311 110.49C80.1311 110.49 80.1311 110.387 80.0281 110.387C80.0281 110.284 79.9251 110.181 79.9251 110.181C79.9251 110.078 79.8221 110.078 79.8221 109.975C74.1572 102.347 68.5952 94.6171 62.9303 86.9899C62.9303 86.9899 62.9303 86.8868 62.8273 86.8868C62.8273 86.8868 62.8273 86.8868 62.7243 86.7837C62.7243 86.7837 62.7243 86.7837 62.6213 86.6807C62.6213 86.6807 62.6213 86.6807 62.5183 86.6807C62.5183 86.6807 62.5183 86.6807 62.4153 86.6807H62.3123L56.5444 88.3298C56.6474 88.3298 56.7504 88.3298 56.8534 88.3298C56.9564 88.3298 57.0594 88.4329 57.1624 88.4329C57.2654 88.5359 57.3684 88.639 57.4714 88.7421C63.1363 96.4724 68.6982 104.1 74.3632 111.727C74.4662 111.933 74.6721 112.139 74.7751 112.345C74.8781 112.551 74.9811 112.758 75.0841 112.964C75.1871 113.17 75.2901 113.376 75.2901 113.582C75.3931 113.788 75.3931 113.994 75.3931 114.304C75.3931 114.51 75.4961 114.716 75.4961 114.922C75.4961 115.128 75.4961 115.334 75.4961 115.541C75.4961 115.747 75.3931 115.953 75.3931 116.159C75.2901 116.365 75.2901 116.468 75.1871 116.674C75.0841 116.88 74.9811 116.984 74.8781 117.087L74.7751 117.19C74.6721 117.293 74.4662 117.396 74.3632 117.396L80.1311 115.747C80.3371 115.747 80.4401 115.644 80.5431 115.541L80.6461 115.437C80.7491 115.334 80.8521 115.231 80.8521 115.128C80.8521 115.128 80.8521 115.025 80.9551 115.025V114.922C80.9551 114.819 81.058 114.819 81.058 114.716C81.058 114.716 81.0581 114.613 81.1611 114.51V114.407V114.304V114.201V114.098V113.994V113.891V113.788V113.685V113.582V113.479C81.1611 113.479 81.1611 113.479 81.1611 113.376V113.273V113.17V113.067C80.5431 112.655 80.5431 112.551 80.5431 112.448C80.5431 112.551 80.5431 112.551 80.5431 112.448Z" fill="url(#paint35_linear_1167_1680)"/>
<path d="M47.2757 76.1688C46.7607 77.3025 46.2457 78.3332 45.8337 79.364C45.0097 81.4254 44.2887 83.4868 44.2887 86.1666C44.2887 89.8772 46.1427 92.9693 48.3057 93.2785C48.6147 93.2785 48.9236 93.2785 49.2326 93.2785C50.3656 93.0724 51.3956 92.3509 52.1166 91.1141C53.0436 89.568 54.2796 88.3311 55.7215 87.9189C55.8245 87.9189 55.9275 87.9189 56.0305 87.9189C56.2365 87.9189 56.4425 88.125 56.6485 88.4342C62.3134 96.1645 67.8754 103.792 73.5403 111.419C74.6732 113.068 75.0852 115.233 74.3642 116.47C74.0553 117.088 73.5403 117.397 73.0253 117.294C72.5103 117.191 71.7893 116.779 71.2743 115.954C68.3903 111.831 65.5064 107.708 62.6224 103.586C62.5194 103.38 62.3134 103.07 62.2104 103.07C62.1074 102.967 61.9014 102.967 61.7984 102.967C61.6954 102.967 61.4895 102.967 61.3865 102.864C61.3865 103.276 61.4895 103.689 61.5925 104.101C61.5925 104.307 61.7984 104.41 61.9014 104.616C64.3734 108.121 66.8454 111.625 69.3173 115.233C70.8623 117.397 70.7593 120.489 69.2143 121.108C69.0083 121.211 68.6993 121.211 68.4933 121.211C67.8754 121.108 67.2574 120.592 66.6394 119.665C64.1674 116.057 61.7984 112.347 59.3265 108.739C59.2235 108.533 59.0175 108.224 58.9145 108.121C58.8115 108.018 58.7085 108.018 58.6055 108.018C58.5025 108.018 58.3995 108.018 58.2965 108.121C58.1935 108.327 58.2965 108.842 58.3995 109.255C58.5025 109.564 58.7085 109.77 58.8115 109.976C60.7685 112.862 62.7254 115.851 64.6824 118.84C66.1244 121.108 66.0214 124.097 64.3734 124.509C64.1674 124.509 63.9614 124.612 63.8584 124.509C63.2404 124.406 62.6224 123.891 62.1074 123.066C59.8415 119.768 57.6785 116.573 55.4125 113.274C55.2066 113.068 55.1036 112.759 54.8976 112.656C54.7946 112.656 54.7946 112.656 54.6916 112.553C54.4856 112.553 54.3826 112.553 54.2796 112.656C54.1766 112.862 54.2796 113.274 54.2796 113.584C54.3826 113.893 54.5886 114.099 54.6916 114.305C56.4425 116.882 58.2965 119.459 60.0475 122.035C61.3865 123.891 61.2835 126.467 59.9445 126.88C59.8415 126.88 59.6355 126.88 59.5325 126.88C59.0175 126.777 58.6055 126.467 58.1935 125.849C55.5155 122.654 52.7346 119.459 50.0566 116.057C45.2157 110.079 40.5808 103.689 36.2548 96.783C35.9459 96.2676 35.8429 95.9584 35.9459 95.34C36.4608 88.5373 36.9758 81.7346 37.3878 74.9319C37.3878 74.7258 37.3878 74.5196 37.4908 74.3135C40.6838 75.2411 43.9797 75.6534 47.2757 76.1688Z" fill="white"/>
<mask id="mask12_1167_1680" style="mask-type:luminance" maskUnits="userSpaceOnUse" x="69" y="82" width="14" height="29">
<path d="M69.21 84.0007L75.0809 82.3516C77.6558 89.8757 80.2308 97.3999 82.8058 105.027C83.0118 105.646 83.0118 106.058 82.8058 106.47C82.2908 107.604 81.6728 108.635 80.7458 108.944L74.8749 110.593C75.8019 110.181 76.4198 109.253 76.9348 108.119C77.1408 107.707 77.1408 107.295 76.9348 106.676C74.3599 99.1521 71.7849 91.5249 69.21 84.0007Z" fill="white"/>
</mask>
<g mask="url(#mask12_1167_1680)">
<path d="M69.21 84.0007L75.0809 82.3516C77.6558 89.8757 80.2308 97.3999 82.8058 105.027C82.8058 105.027 82.8058 105.027 82.8058 105.13L76.9348 106.779C76.9348 106.779 76.9348 106.779 76.9348 106.676C74.3599 99.1521 71.7849 91.5249 69.21 84.0007Z" fill="white"/>
<path d="M76.9351 106.676L82.806 105.026V105.129L76.9351 106.779C76.9351 106.779 76.9351 106.779 76.9351 106.676Z" fill="white"/>
<path d="M77.0371 106.884L82.908 105.235V105.338L77.0371 106.884Z" fill="white"/>
<path d="M77.0371 106.884L82.908 105.235C82.908 105.235 82.908 105.235 82.908 105.338L77.0371 106.884C77.0371 106.988 77.0371 106.988 77.0371 106.884Z" fill="#FAFAFA"/>
<path d="M77.0371 106.985L82.908 105.336C82.908 105.336 82.908 105.336 82.908 105.439L77.0371 106.985Z" fill="#F5F5F5"/>
<path d="M77.0371 107.089L82.908 105.439C82.908 105.439 82.908 105.439 82.908 105.543L77.0371 107.089Z" fill="#F0F0F0"/>
<path d="M77.0371 107.089L82.908 105.439C82.908 105.439 82.908 105.439 82.908 105.543L77.0371 107.089C77.0371 107.192 77.0371 107.192 77.0371 107.089Z" fill="#EBEBEB"/>
<path d="M77.0371 107.19L82.908 105.541C82.908 105.541 82.908 105.541 82.908 105.644L77.0371 107.19Z" fill="#E6E6E6"/>
<path d="M77.0371 107.707L82.908 106.058C82.908 106.058 82.908 106.058 82.908 106.161L77.0371 107.707C77.0371 107.81 77.0371 107.81 77.0371 107.707Z" fill="#A8A8A8"/>
<path d="M77.0371 107.808L82.908 106.159C82.908 106.159 82.908 106.159 82.908 106.262L77.0371 107.808Z" fill="#A3A3A3"/>
<path d="M77.0371 107.914L82.908 106.265C82.908 106.265 82.908 106.265 82.908 106.368L77.0371 107.914Z" fill="#9E9E9E"/>
<path d="M77.0371 107.914L82.908 106.265C82.908 106.265 82.908 106.265 82.908 106.368L77.0371 107.914Z" fill="#999999"/>
<path d="M77.0371 108.015L82.908 106.366V106.469L77.0371 108.015Z" fill="#949494"/>
<path d="M76.936 108.12L82.8069 106.471C82.7039 106.677 82.6009 106.78 82.6009 106.986L76.73 108.635C76.833 108.532 76.936 108.326 76.936 108.12Z" fill="#8F8F8F"/>
<path d="M76.7284 108.635L82.5993 106.986C82.4963 107.192 82.3933 107.399 82.2903 107.605L76.4194 109.254C76.5224 109.048 76.6254 108.842 76.7284 108.635Z" fill="#8A8A8A"/>
<path d="M76.42 109.255L82.2909 107.605C81.8789 108.224 81.4669 108.739 80.8489 108.945L74.978 110.595C75.493 110.388 76.008 109.873 76.42 109.255Z" fill="#858585"/>
</g>
<mask id="mask13_1167_1680" style="mask-type:luminance" maskUnits="userSpaceOnUse" x="74" y="109" width="7" height="2">
<path d="M80.6395 109.052L74.7686 110.701C74.7686 110.701 74.7686 110.701 74.8716 110.701L80.6395 109.052C80.7425 109.052 80.6395 109.052 80.6395 109.052Z" fill="white"/>
</mask>
<g mask="url(#mask13_1167_1680)">
<path d="M74.8735 110.701L80.7444 109.052C80.7444 109.052 80.7445 109.052 80.6415 109.052L74.8735 110.701Z" fill="#858585"/>
</g>
<mask id="mask14_1167_1680" style="mask-type:luminance" maskUnits="userSpaceOnUse" x="54" y="71" width="21" height="12">
<path d="M54.2759 72.9714L60.1468 71.3223C60.9708 71.7345 61.7948 72.1468 62.5158 72.6622C66.4297 75.4451 70.3436 78.3311 74.2576 81.2171L68.3867 82.8662C64.4727 79.9802 60.5588 77.0942 56.6448 74.3113C55.9239 73.6929 55.0999 73.3837 54.2759 72.9714Z" fill="white"/>
</mask>
<g mask="url(#mask14_1167_1680)">
<path d="M54.2759 72.9714L60.1468 71.3223C60.6618 71.6315 61.1768 71.8376 61.6918 72.1468L55.8209 73.796C55.3059 73.4868 54.7909 73.2806 54.2759 72.9714Z" fill="#C2C2C2"/>
<path d="M55.8228 73.7956L61.6937 72.1465C61.7967 72.2496 62.0027 72.2496 62.1057 72.3526L56.2347 74.0018C56.0287 73.8987 55.9258 73.7956 55.8228 73.7956Z" fill="#C7C7C7"/>
<path d="M56.2314 74.0027L62.1024 72.3535C62.2054 72.4566 62.3084 72.4566 62.4114 72.5597L56.4374 74.2088C56.4374 74.1057 56.3344 74.1057 56.2314 74.0027Z" fill="#CCCCCC"/>
<path d="M56.4399 74.2087L62.3109 72.5596C62.4139 72.5596 62.4139 72.6626 62.5168 72.6626C66.4308 75.4456 70.3447 78.3315 74.2587 81.2175L68.3878 82.8667C64.4738 79.9807 60.5599 77.0947 56.6459 74.3118C56.6459 74.2087 56.5429 74.2087 56.4399 74.2087Z" fill="#D1D1D1"/>
</g>
<mask id="mask15_1167_1680" style="mask-type:luminance" maskUnits="userSpaceOnUse" x="68" y="81" width="7" height="4">
<path d="M68.3867 82.8669L74.2576 81.2178C74.5666 81.4239 74.8756 81.9393 74.9786 82.3516L69.1077 84.0007C69.0047 83.5884 68.6957 83.0731 68.3867 82.8669Z" fill="white"/>
</mask>
<g mask="url(#mask15_1167_1680)">
<path d="M68.5923 83.072L74.4632 81.4229C74.4632 81.4229 74.4632 81.4228 74.5662 81.5259L68.5923 83.072Z" fill="#EBEBEB"/>
<path d="M68.6973 83.072L74.5682 81.4229C74.5682 81.4229 74.5682 81.4228 74.6712 81.5259L68.6973 83.072C68.6973 83.1751 68.6973 83.1751 68.6973 83.072Z" fill="#F0F0F0"/>
<path d="M68.6973 83.1775L74.5682 81.5283C74.5682 81.5283 74.5682 81.6314 74.6712 81.6314L68.6973 83.1775Z" fill="#F5F5F5"/>
<path d="M68.7993 83.28L74.6702 81.6309C74.6702 81.6309 74.6702 81.7339 74.7732 81.7339L68.9023 83.3831C68.7993 83.3831 68.7993 83.28 68.7993 83.28Z" fill="#FAFAFA"/>
<path d="M68.7993 83.3845L74.6702 81.7354C74.6702 81.7354 74.6702 81.8384 74.7732 81.8384L68.9023 83.4876C68.9023 83.4876 68.9023 83.3845 68.7993 83.3845Z" fill="white"/>
<path d="M68.9033 83.4841L74.7742 81.835C74.7742 81.835 74.7742 81.938 74.8772 81.938L69.0063 83.5872L68.9033 83.4841Z" fill="white"/>
<path d="M69.0044 83.5896L74.8753 81.9404C74.8753 82.0435 74.9783 82.0435 74.9783 82.1466L69.1074 83.7957C69.0044 83.6926 69.0044 83.6926 69.0044 83.5896Z" fill="white"/>
<path d="M69.1064 83.7956L74.9774 82.1465V82.2496L69.1064 83.7956Z" fill="white"/>
<path d="M69.1064 83.8982L74.9774 82.249V82.3521L69.1064 84.0012V83.8982Z" fill="white"/>
<path d="M69.21 84.0007L74.9779 82.3516L69.21 84.0007Z" fill="white"/>
</g>
<path d="M54.2757 72.9727C55.0997 73.3849 55.9237 73.7972 56.6447 74.3126C60.5586 77.0955 64.4726 79.9815 68.3865 82.8675C68.6955 83.0736 69.0045 83.589 69.1075 84.0013C71.6825 91.5254 74.2574 99.0496 76.8324 106.677C77.0384 107.295 77.0384 107.708 76.8324 108.12C76.3174 109.254 75.6994 110.284 74.7724 110.594C74.6694 110.594 74.5664 110.697 74.4634 110.594C74.2574 110.594 74.1544 110.491 73.9484 110.181C68.3865 102.554 62.8246 95.0298 57.2627 87.2995C56.7477 86.578 56.2327 86.1657 55.7177 86.0627C55.5117 86.0627 55.2027 86.0627 54.9967 86.1657C53.2458 86.6811 52.0098 88.2272 50.8768 89.9794C50.1558 91.1132 49.2288 91.6285 48.0958 91.4224C47.9928 91.4224 47.7868 91.3193 47.6838 91.3193C46.3449 90.907 45.4179 89.2579 45.3149 87.1965C45.2119 85.4442 45.5209 84.1043 45.9329 82.7644C47.2719 78.5385 49.0228 75.2402 52.0098 73.5911C52.7308 73.2819 53.5548 73.1788 54.2757 72.9727Z" fill="white"/>
<mask id="mask16_1167_1680" style="mask-type:luminance" maskUnits="userSpaceOnUse" x="72" y="75" width="13" height="3">
<path d="M72.8208 77.6093L78.6917 75.9602C80.6487 75.4448 82.7087 75.2387 84.9746 75.651L79.1037 77.3001C76.9407 76.9909 74.7778 77.094 72.8208 77.6093Z" fill="white"/>
</mask>
<g mask="url(#mask16_1167_1680)">
<path d="M72.8208 77.6097L78.6917 75.9606C79.2067 75.8575 79.7217 75.6514 80.2367 75.6514L74.4688 77.3005C73.8508 77.4036 73.3358 77.5066 72.8208 77.6097Z" fill="#8F8F8F"/>
<path d="M74.4688 77.303L80.3397 75.6539C80.7516 75.5508 81.2666 75.5508 81.6786 75.5508L75.8077 77.1999C75.2927 77.1999 74.8807 77.1999 74.4688 77.303Z" fill="#949494"/>
<path d="M75.8081 77.0954L81.679 75.4463C82.091 75.4463 82.503 75.4463 82.915 75.4463L77.0441 77.0954C76.6321 77.0954 76.2201 77.0954 75.8081 77.0954Z" fill="#999999"/>
<path d="M77.0444 77.0954L82.9153 75.4463C83.3273 75.4463 83.7393 75.4463 84.1513 75.5494L78.2804 77.1985C77.8684 77.0954 77.4564 77.0954 77.0444 77.0954Z" fill="#9E9E9E"/>
<path d="M78.2798 77.1999L84.1507 75.5508C84.4597 75.5508 84.6657 75.6539 84.9747 75.6539L79.1038 77.303C78.7948 77.303 78.5888 77.1999 78.2798 77.1999Z" fill="#A3A3A3"/>
</g>
<path d="M79.0991 77.3034C79.5111 77.4065 80.0261 77.4065 80.4381 77.6126C81.8801 89.3627 83.3221 101.113 84.764 112.966C84.043 112.863 83.219 112.76 82.4981 112.657C81.9831 112.554 81.4681 112.451 80.9531 112.348C80.1291 112.141 79.6141 111.111 79.2021 109.874C77.2451 104.102 75.2882 98.4329 73.3312 92.764C72.1982 89.3627 71.0652 86.0644 69.8293 82.6631C69.1083 80.3955 69.3143 79.1587 70.5502 78.6433C73.2282 77.2003 76.0092 76.788 79.0991 77.3034Z" fill="white"/>
<mask id="mask17_1167_1680" style="mask-type:luminance" maskUnits="userSpaceOnUse" x="79" y="75" width="8" height="3">
<path d="M79.103 77.3054L84.9739 75.6562C85.3859 75.7593 85.9009 75.7593 86.3129 75.9655L80.442 77.6146C79.927 77.4085 79.515 77.4085 79.103 77.3054Z" fill="white"/>
</mask>
<g mask="url(#mask17_1167_1680)">
<path d="M79.103 77.3054L84.9739 75.6562C85.0769 75.6562 85.1799 75.6562 85.2829 75.7593L79.412 77.4085C79.309 77.3054 79.206 77.3054 79.103 77.3054Z" fill="#A3A3A3"/>
<path d="M79.4136 77.4099L85.2845 75.7607C85.5935 75.8638 85.9025 75.8638 86.2115 75.9669L80.3406 77.616C80.1346 77.513 79.7226 77.4099 79.4136 77.4099Z" fill="#A8A8A8"/>
</g>
<mask id="mask18_1167_1680" style="mask-type:luminance" maskUnits="userSpaceOnUse" x="80" y="75" width="11" height="38">
<path d="M80.4346 77.5124L86.3055 75.8633C87.7475 87.6134 89.1894 99.3635 90.6314 111.217L84.7605 112.866C83.3185 101.013 81.8765 89.2625 80.4346 77.5124Z" fill="white"/>
</mask>
<g mask="url(#mask18_1167_1680)">
<path d="M80.4346 77.5124L86.3055 75.8633C87.7475 87.6134 89.1894 99.3635 90.6314 111.217L84.7605 112.866C83.3185 101.013 81.8765 89.2625 80.4346 77.5124Z" fill="#DBDBDB"/>
</g>
<defs>
<linearGradient id="paint0_linear_1167_1680" x1="55.2917" y1="120.351" x2="66.094" y2="118.685" gradientUnits="userSpaceOnUse">
<stop stop-color="white"/>
<stop offset="1" stop-color="#5E5E5E"/>
</linearGradient>
<linearGradient id="paint1_linear_1167_1680" x1="59.4752" y1="116.84" x2="70.688" y2="115.111" gradientUnits="userSpaceOnUse">
<stop stop-color="white"/>
<stop offset="1" stop-color="#5E5E5E"/>
</linearGradient>
<linearGradient id="paint2_linear_1167_1680" x1="63.8403" y1="103.957" x2="73.2119" y2="119.201" gradientUnits="userSpaceOnUse">
<stop stop-color="white"/>
<stop offset="1" stop-color="#5E5E5E"/>
</linearGradient>
<linearGradient id="paint3_linear_1167_1680" x1="64.8995" y1="103.307" x2="74.2711" y2="118.551" gradientUnits="userSpaceOnUse">
<stop stop-color="white"/>
<stop offset="1" stop-color="#5E5E5E"/>
</linearGradient>
<linearGradient id="paint4_linear_1167_1680" x1="65.2466" y1="103.094" x2="74.6181" y2="118.337" gradientUnits="userSpaceOnUse">
<stop stop-color="white"/>
<stop offset="1" stop-color="#5E5E5E"/>
</linearGradient>
<linearGradient id="paint5_linear_1167_1680" x1="65.2435" y1="103.095" x2="74.6151" y2="118.339" gradientUnits="userSpaceOnUse">
<stop stop-color="white"/>
<stop offset="1" stop-color="#5E5E5E"/>
</linearGradient>
<linearGradient id="paint6_linear_1167_1680" x1="65.2175" y1="103.112" x2="74.5892" y2="118.356" gradientUnits="userSpaceOnUse">
<stop stop-color="white"/>
<stop offset="1" stop-color="#5E5E5E"/>
</linearGradient>
<linearGradient id="paint7_linear_1167_1680" x1="65.1955" y1="103.122" x2="74.5672" y2="118.366" gradientUnits="userSpaceOnUse">
<stop stop-color="white"/>
<stop offset="1" stop-color="#5E5E5E"/>
</linearGradient>
<linearGradient id="paint8_linear_1167_1680" x1="65.1482" y1="103.153" x2="74.5198" y2="118.397" gradientUnits="userSpaceOnUse">
<stop stop-color="white"/>
<stop offset="1" stop-color="#5E5E5E"/>
</linearGradient>
<linearGradient id="paint9_linear_1167_1680" x1="65.087" y1="103.191" x2="74.4587" y2="118.435" gradientUnits="userSpaceOnUse">
<stop stop-color="white"/>
<stop offset="1" stop-color="#5E5E5E"/>
</linearGradient>
<linearGradient id="paint10_linear_1167_1680" x1="65.0451" y1="103.219" x2="74.4169" y2="118.462" gradientUnits="userSpaceOnUse">
<stop stop-color="white"/>
<stop offset="1" stop-color="#5E5E5E"/>
</linearGradient>
<linearGradient id="paint11_linear_1167_1680" x1="65.0056" y1="103.241" x2="74.3774" y2="118.485" gradientUnits="userSpaceOnUse">
<stop stop-color="white"/>
<stop offset="1" stop-color="#5E5E5E"/>
</linearGradient>
<linearGradient id="paint12_linear_1167_1680" x1="64.9662" y1="103.267" x2="74.3379" y2="118.511" gradientUnits="userSpaceOnUse">
<stop stop-color="white"/>
<stop offset="1" stop-color="#5E5E5E"/>
</linearGradient>
<linearGradient id="paint13_linear_1167_1680" x1="64.9264" y1="103.293" x2="74.2979" y2="118.537" gradientUnits="userSpaceOnUse">
<stop stop-color="white"/>
<stop offset="1" stop-color="#5E5E5E"/>
</linearGradient>
<linearGradient id="paint14_linear_1167_1680" x1="64.8822" y1="103.318" x2="74.2538" y2="118.562" gradientUnits="userSpaceOnUse">
<stop stop-color="white"/>
<stop offset="1" stop-color="#5E5E5E"/>
</linearGradient>
<linearGradient id="paint15_linear_1167_1680" x1="64.8372" y1="103.344" x2="74.2089" y2="118.588" gradientUnits="userSpaceOnUse">
<stop stop-color="white"/>
<stop offset="1" stop-color="#5E5E5E"/>
</linearGradient>
<linearGradient id="paint16_linear_1167_1680" x1="64.7898" y1="103.374" x2="74.1614" y2="118.617" gradientUnits="userSpaceOnUse">
<stop stop-color="white"/>
<stop offset="1" stop-color="#5E5E5E"/>
</linearGradient>
<linearGradient id="paint17_linear_1167_1680" x1="64.7398" y1="103.405" x2="74.1113" y2="118.649" gradientUnits="userSpaceOnUse">
<stop stop-color="white"/>
<stop offset="1" stop-color="#5E5E5E"/>
</linearGradient>
<linearGradient id="paint18_linear_1167_1680" x1="64.6869" y1="103.436" x2="74.0586" y2="118.68" gradientUnits="userSpaceOnUse">
<stop stop-color="white"/>
<stop offset="1" stop-color="#5E5E5E"/>
</linearGradient>
<linearGradient id="paint19_linear_1167_1680" x1="64.6328" y1="103.471" x2="74.0045" y2="118.715" gradientUnits="userSpaceOnUse">
<stop stop-color="white"/>
<stop offset="1" stop-color="#5E5E5E"/>
</linearGradient>
<linearGradient id="paint20_linear_1167_1680" x1="64.5758" y1="103.506" x2="73.9475" y2="118.749" gradientUnits="userSpaceOnUse">
<stop stop-color="white"/>
<stop offset="1" stop-color="#5E5E5E"/>
</linearGradient>
<linearGradient id="paint21_linear_1167_1680" x1="64.5169" y1="103.542" x2="73.8885" y2="118.786" gradientUnits="userSpaceOnUse">
<stop stop-color="white"/>
<stop offset="1" stop-color="#5E5E5E"/>
</linearGradient>
<linearGradient id="paint22_linear_1167_1680" x1="64.4559" y1="103.581" x2="73.8277" y2="118.825" gradientUnits="userSpaceOnUse">
<stop stop-color="white"/>
<stop offset="1" stop-color="#5E5E5E"/>
</linearGradient>
<linearGradient id="paint23_linear_1167_1680" x1="64.3933" y1="103.619" x2="73.7649" y2="118.862" gradientUnits="userSpaceOnUse">
<stop stop-color="white"/>
<stop offset="1" stop-color="#5E5E5E"/>
</linearGradient>
<linearGradient id="paint24_linear_1167_1680" x1="64.3309" y1="103.656" x2="73.7025" y2="118.9" gradientUnits="userSpaceOnUse">
<stop stop-color="white"/>
<stop offset="1" stop-color="#5E5E5E"/>
</linearGradient>
<linearGradient id="paint25_linear_1167_1680" x1="64.2602" y1="103.699" x2="73.6318" y2="118.942" gradientUnits="userSpaceOnUse">
<stop stop-color="white"/>
<stop offset="1" stop-color="#5E5E5E"/>
</linearGradient>
<linearGradient id="paint26_linear_1167_1680" x1="64.1905" y1="103.743" x2="73.5621" y2="118.987" gradientUnits="userSpaceOnUse">
<stop stop-color="white"/>
<stop offset="1" stop-color="#5E5E5E"/>
</linearGradient>
<linearGradient id="paint27_linear_1167_1680" x1="64.1167" y1="103.786" x2="73.4883" y2="119.03" gradientUnits="userSpaceOnUse">
<stop stop-color="white"/>
<stop offset="1" stop-color="#5E5E5E"/>
</linearGradient>
<linearGradient id="paint28_linear_1167_1680" x1="64.0387" y1="103.836" x2="73.4102" y2="119.079" gradientUnits="userSpaceOnUse">
<stop stop-color="white"/>
<stop offset="1" stop-color="#5E5E5E"/>
</linearGradient>
<linearGradient id="paint29_linear_1167_1680" x1="63.9569" y1="103.886" x2="73.3286" y2="119.129" gradientUnits="userSpaceOnUse">
<stop stop-color="white"/>
<stop offset="1" stop-color="#5E5E5E"/>
</linearGradient>
<linearGradient id="paint30_linear_1167_1680" x1="63.8664" y1="103.942" x2="73.238" y2="119.186" gradientUnits="userSpaceOnUse">
<stop stop-color="white"/>
<stop offset="1" stop-color="#5E5E5E"/>
</linearGradient>
<linearGradient id="paint31_linear_1167_1680" x1="63.7659" y1="104.004" x2="73.1374" y2="119.248" gradientUnits="userSpaceOnUse">
<stop stop-color="white"/>
<stop offset="1" stop-color="#5E5E5E"/>
</linearGradient>
<linearGradient id="paint32_linear_1167_1680" x1="63.6503" y1="104.077" x2="73.022" y2="119.32" gradientUnits="userSpaceOnUse">
<stop stop-color="white"/>
<stop offset="1" stop-color="#5E5E5E"/>
</linearGradient>
<linearGradient id="paint33_linear_1167_1680" x1="63.5069" y1="104.162" x2="72.8785" y2="119.406" gradientUnits="userSpaceOnUse">
<stop stop-color="white"/>
<stop offset="1" stop-color="#5E5E5E"/>
</linearGradient>
<linearGradient id="paint34_linear_1167_1680" x1="62.925" y1="104.52" x2="72.2966" y2="119.764" gradientUnits="userSpaceOnUse">
<stop stop-color="white"/>
<stop offset="1" stop-color="#5E5E5E"/>
</linearGradient>
<linearGradient id="paint35_linear_1167_1680" x1="58.1294" y1="103.293" x2="78.6068" y2="100.136" gradientUnits="userSpaceOnUse">
<stop stop-color="white"/>
<stop offset="1" stop-color="#5E5E5E"/>
</linearGradient>
</defs>
</svg>
