<svg width="146" height="171" viewBox="0 0 146 171" fill="none" xmlns="http://www.w3.org/2000/svg">
<path d="M19.2768 16.7932L41.3381 4.03143L41.5523 3.92419C52.5829 -2.29581 67.6831 -1.33063 84.3896 8.32109C100.025 17.3294 114.269 32.4504 125.085 49.8235C137.508 69.8776 145.326 93.149 145.326 113.954C145.326 133.365 138.579 146.984 127.548 153.419H127.441L104.952 166.288C93.8139 173.366 78.1782 172.722 60.8291 162.641C27.3088 143.338 0 95.9373 0 57.0087C0 36.7401 7.38945 22.7987 19.2768 16.7932Z" fill="#FF4D00"/>
<path opacity="0.1" d="M105.594 166.073L127.655 153.418H127.762C138.793 147.091 145.54 133.364 145.54 113.954C145.54 93.1488 137.722 69.8774 125.299 49.8232L101.739 63.4429C114.162 83.497 121.979 106.768 121.979 127.573C121.872 146.126 115.661 159.424 105.594 166.073Z" fill="black"/>
<path opacity="0.4" d="M19.7051 16.5787C30.5215 11.3238 45.0862 12.6107 60.9361 21.8335C76.5717 30.949 90.9222 45.9628 101.632 63.4432L125.192 49.8235C114.483 32.3432 100.132 17.3294 84.4966 8.32109C67.79 -1.33063 52.6899 -2.29581 41.6592 3.92419L41.4451 4.03143L19.7051 16.5787Z" fill="white"/>
<path d="M22.4867 82.9094L30.0305 76.7935L56.2997 97.077L48.7175 103.32L22.4867 82.9094Z" fill="#F4F2F2"/>
<path d="M48.7174 103.321L56.2997 97.0775L94.7196 77.3078L87.2205 83.5061L48.7174 103.321Z" fill="#979797"/>
<path d="M87.2204 83.5064L94.7195 77.3081L102.417 87.7343L94.9176 93.9326L87.2204 83.5064Z" fill="#EFEFEF"/>
<path d="M22.4864 82.9097L48.7171 103.321L87.2202 83.5058L94.9174 93.932L50.6748 116.646L17.4457 90.8654L22.4864 82.9097Z" fill="white"/>
</svg>
