<svg xmlns="http://www.w3.org/2000/svg" viewBox="0 0 489 409.94"><defs><style>.cls-1{fill:#fe0000;}.cls-1,.cls-2,.cls-3,.cls-4,.cls-5{fill-rule:evenodd;}.cls-2{fill:#810604;}.cls-4{fill:#b90404;}.cls-5{fill:#ae0707;}</style></defs><title>BirdMoney_Logo</title><g id="Layer_2" data-name="Layer 2"><g id="Layer_1-2" data-name="Layer 1"><path class="cls-1" d="M272.51,127.74l-198,198a4.22,4.22,0,0,0,1.74,7c35.94,11.07,106.34,1.63,187-13.81,53.18-10.18,103.31-28.81,136.75-62.26,39.56-39.55,55.45-89.41,15.9-129a101.4,101.4,0,0,0-143.33,0Z"/><path class="cls-1" d="M179.44,220.78c48.28-48.29,160.41-203,235.15-174.29,66,25.33,20.07,157.16,20.07,157.16S252.3,220.78,179.44,220.78Z"/><path class="cls-2" d="M240.28,159.71,0,400l10.47,5.92a31.19,31.19,0,0,0,38.1-5.85l208.8-223.25-17.09-17.1Z"/><path class="cls-1" d="M446,75.46C435,56.81,396.48,1.39,316.65,0a1.55,1.55,0,0,0-1.39.84,1.56,1.56,0,0,0,.15,1.62c6.86,9.85,28.92,47.51-5.78,82.2L427.79,208l27.53-88.91L446,75.46Z"/><path class="cls-3" d="M445,163.49s-13.28,2.15-14.68-8.44c-7.94-60.19-37.24-38.6-50.94-86-4.15-14.34,59-5.27,59-5.27s16.86,20.43,16.9,44.78c0,24.75-10.28,54.94-10.28,54.94Z"/><path class="cls-4" d="M445.51,74.72c17.18,6.37,26,11.43,42.57,21.92a2,2,0,0,1,.92,1.53,2,2,0,0,1-.7,1.64C476.7,109.62,466.4,117.87,455,122c-13.6-2.5-26.6-11-28.07-20.53-1.43-9.29,11.45-18.53,18.59-26.79Z"/><path class="cls-5" d="M249,249.18,84.35,84.53a3.51,3.51,0,0,1,1.44-5.84c29.89-9.21,100.68-13.83,167.71-1,44.22,8.47,86.87,24.5,114.68,52.31A84.27,84.27,0,1,1,249,249.18Z"/><path class="cls-1" d="M282.67,163.65a36.68,36.68,0,1,1,0,51.88c-5.42-5.42-16.63-17.37-22-23.09a4.58,4.58,0,0,1,.05-6.3c5.41-5.6,16.68-17.24,21.93-22.49Z"/></g></g></svg>