<svg xmlns="http://www.w3.org/2000/svg" xmlns:xlink="http://www.w3.org/1999/xlink" width="230.302" height="40.713" viewBox="0 0 230.302 40.713">
  <defs>
    <clipPath id="clip-path">
      <rect id="Rectangle_2" data-name="Rectangle 2" width="230.302" height="40.713" transform="translate(67 79)" fill="#231f1b"/>
    </clipPath>
  </defs>
  <g id="Group_1" data-name="Group 1" transform="translate(-67 -79)" clip-path="url(#clip-path)">
    <path id="Path_1" data-name="Path 1" d="M109.727,110H114.8V96.09a4.115,4.115,0,0,1,1.732-3.349l1.932-1.363v-1l-8.73,6.1V110Z" transform="translate(13.387 3.564)" fill="#231f1b"/>
    <path id="Path_2" data-name="Path 2" d="M110.6,88.84v3.512a4.118,4.118,0,0,1-1.732,3.349l-1.932,1.363v1l8.728-6.1V88.028c0-2.194.885-2.762,2.808-2.762a5.361,5.361,0,0,1,3,.885h.389l.65-1.959a10.676,10.676,0,0,0-5.029-1.074C113.019,83.117,110.6,85.112,110.6,88.84Z" transform="translate(12.512 1.29)" fill="#231f1b"/>
    <path id="Path_3" data-name="Path 3" d="M129.589,90.343a17.244,17.244,0,0,0-9.026,2.419l.884,1.995h.344a12.057,12.057,0,0,1,6.8-2.23c2.61,0,4.189,1,4.189,3.683v2.537a10.423,10.423,0,0,0-5.994-1.652c-4.649,0-7.99,2.347-7.99,6.608s3.115,6.762,7.683,6.762a8.361,8.361,0,0,0,6.3-2.456V110h5.109V97.213c0-5.028-3.186-6.879-8.3-6.879m3.187,15.4a6.38,6.38,0,0,1-5.029,2.5,3.647,3.647,0,0,1-3.836-4v-.957c0-2.807,1.769-4.071,4.379-4.071a7.429,7.429,0,0,1,4.5,1.5v5.028Z" transform="translate(16.227 3.551)" fill="#231f1b"/>
    <path id="Path_4" data-name="Path 4" d="M143.293,94.225V90.8l-5.11,3.539v15.671h5.11V96.644a6.756,6.756,0,0,1,5.416-2.961,5.572,5.572,0,0,1,2.536.5l.343-.081V90.488a4.915,4.915,0,0,0-1.345-.153,8.928,8.928,0,0,0-6.95,3.882" transform="translate(22.302 3.551)" fill="#231f1b"/>
    <path id="Path_5" data-name="Path 5" d="M177.012,90.343a12.062,12.062,0,0,0-7.683,3.268c-.732-2.148-2.608-3.268-5.416-3.268a11.308,11.308,0,0,0-7.376,3.223V90.8l-5.109,3.539v15.671h5.109V95.877c1.571-1.571,3.845-2.807,5.534-2.807s2.455,1,2.455,2.88V110h5.11V95.8c1.615-1.535,3.881-2.726,5.533-2.726s2.5,1,2.5,2.88V110h5.073V95.868c0-3.575-2.076-5.534-5.723-5.534" transform="translate(26.452 3.551)" fill="#231f1b"/>
    <path id="Path_6" data-name="Path 6" d="M183.8,94.762c0-1.381,1.462-2.266,4.034-2.266a9.171,9.171,0,0,1,5.723,1.805h.424l.885-1.878a11.894,11.894,0,0,0-7.033-2.076c-4.992,0-8.259,2.23-8.259,5.606,0,7.258,11.79,5.109,11.79,9.641,0,1.688-1.417,2.726-4.143,2.726a11.008,11.008,0,0,1-7.068-2.42h-.424l-1.039,1.843a13.673,13.673,0,0,0,8.568,2.725c4.838,0,8.909-1.958,8.909-6.264,0-7.186-12.367-5.416-12.367-9.451" transform="translate(34.993 3.555)" fill="#231f1b"/>
    <path id="Path_7" data-name="Path 7" d="M204.92,90.341c-6.066,0-10.408,3.647-10.408,10.065s4.306,10.065,11.1,10.065a12.2,12.2,0,0,0,8.72-3.186l-1.265-1.534h-.424a9.437,9.437,0,0,1-6.679,2.573c-3.99,0-6.148-1.806-6.148-5.534v-1.805H214.95v-.7C214.95,93.988,210.8,90.341,204.92,90.341Zm5.029,8.531H199.811v-.731c0-3.918,2.149-5.642,5.109-5.642s5.029,1.724,5.029,5.642Z" transform="translate(39.951 3.553)" fill="#231f1b"/>
    <path id="Path_8" data-name="Path 8" d="M226.507,90.341a11.95,11.95,0,0,0-7.646,3.268V90.8l-5.11,3.539v15.671h5.11V95.875c1.652-1.535,4.035-2.807,5.84-2.807s2.537,1,2.537,2.88V110h5.109V95.794C232.347,92.219,230.236,90.341,226.507,90.341Z" transform="translate(45.978 3.553)" fill="#231f1b"/>
    <path id="Path_9" data-name="Path 9" d="M239.418,87.388v-2.4h-1.426a4.763,4.763,0,0,1-1.932,3.837l-1.706,1.264v1.625a4.116,4.116,0,0,1-1.734,3.349l-1.932,1.363v1l8.73-6.093V87.388Z" transform="translate(51.285 1.876)" fill="#231f1b"/>
    <path id="Path_10" data-name="Path 10" d="M244.494,107.461h-.378a5.414,5.414,0,0,1-2.962.848c-1.878,0-2.762-.578-2.762-2.691V96.1a4.118,4.118,0,0,1,1.732-3.349l1.932-1.363v-1l-8.728,6.1v8.242c0,3.728,2.382,5.723,6.878,5.723a10.514,10.514,0,0,0,4.992-1.074l-.695-1.923Z" transform="translate(52.112 3.568)" fill="#231f1b"/>
    <path id="Path_11" data-name="Path 11" d="M86.887,79.794a19.559,19.559,0,0,0-14.606,32.57L67,116.1v3.61l7.493-5.227a19.558,19.558,0,0,0,27-28.137l5.281-3.728V79l-7.493,5.227A19.515,19.515,0,0,0,86.887,79.794Zm19.526,2.636-6.057,4.279a13.223,13.223,0,0,0-5.6,10.8V99.9L79,110.911l-11.645,8.124v-2.753L73.409,112a13.225,13.225,0,0,0,5.6-10.8V98.815l15.752-11,11.654-8.133Z" transform="translate(0 0)" fill="#231f1b"/>
  </g>
</svg>
