<svg xmlns="http://www.w3.org/2000/svg" width="100%" height="100%" fill="none" viewBox="0 0 186 40">
  <path fill="#fff" d="M56 28.752V10.269h5.749v3.874c.638-2.762 2.781-4.18 4.998-4.18.677 0 1.053.038 1.503.153v5.445c-.677-.076-1.015-.115-1.73-.115-3.118 0-4.771 2.071-4.771 6.174v7.132H56Zm32.88-7.631H75.503c.112 2.416 1.691 3.719 4.246 3.719 1.767 0 2.894-.498 3.382-1.65h5.636c-.564 3.643-4.209 6.058-9.018 6.058-6.163 0-9.958-3.565-9.958-9.74 0-6.173 3.871-9.74 9.77-9.74 5.9 0 9.47 3.566 9.47 8.782 0 .959-.037 1.533-.15 2.568l-.001.003Zm-5.524-3.642c-.037-2.454-1.39-3.757-3.834-3.757-2.443 0-3.983 1.495-4.02 3.757h7.854Zm20.405 6.595v4.678c-.827.153-2.179.306-3.833.306-2.705 0-6.426-.614-6.426-6.787V14.91h-2.856v-4.64h2.856V4.786h5.749v5.483h4.096v4.64h-4.096v6.135c0 2.722 1.09 3.145 2.517 3.145.64 0 1.465-.038 1.992-.115h.001Zm3.308 4.678V10.269h5.749v3.874c.639-2.762 2.781-4.18 4.998-4.18.677 0 1.052.038 1.503.153v5.445c-.677-.076-1.015-.115-1.729-.115-3.12 0-4.774 2.071-4.774 6.174v7.132h-5.749.002Zm32.88-7.631h-13.377c.112 2.416 1.691 3.719 4.246 3.719 1.767 0 2.894-.498 3.382-1.65h5.637c-.565 3.643-4.209 6.058-9.019 6.058-6.163 0-9.958-3.565-9.958-9.74 0-6.173 3.871-9.74 9.771-9.74 5.899 0 9.47 3.566 9.47 8.782 0 .959-.038 1.533-.15 2.568l-.002.003Zm-5.524-3.642c-.037-2.454-1.39-3.757-3.833-3.757-2.444 0-3.984 1.495-4.021 3.757h7.854Zm27.281 3.642h-13.377c.112 2.416 1.691 3.719 4.246 3.719 1.767 0 2.894-.498 3.382-1.65h5.636c-.564 3.643-4.208 6.058-9.018 6.058-6.163 0-9.958-3.565-9.958-9.74 0-6.173 3.871-9.74 9.77-9.74 5.9 0 9.47 3.566 9.47 8.782 0 .959-.037 1.533-.15 2.568l-.001.003Zm-5.524-3.642c-.037-2.454-1.39-3.757-3.833-3.757-2.444 0-3.984 1.495-4.022 3.757h7.855Zm28.972 2.032c0 5.79-3.494 9.74-8.493 9.74-2.669 0-4.847-1.38-5.786-3.106v2.607h-5.712V1.91h5.712v11.005c.977-1.764 3.231-3.145 5.936-3.145 4.961 0 8.343 3.912 8.343 9.74Zm-5.862 0c0-2.838-1.766-4.83-4.284-4.83-2.517 0-4.359 1.955-4.359 4.83s1.805 4.87 4.359 4.87c2.555 0 4.284-1.995 4.284-4.87ZM31.27 23.445c4.018-2.208 6.788-6.493 6.788-11.14C38.058 5.048 31.977 0 23.37 0H0v39.119h16.132V27.445h.388l4.718 11.674H39l-7.73-15.675v.001Z"></path>
  <path fill="#1D1D1B" stroke="#1D1D1B" stroke-miterlimit="10" stroke-width=".5" d="M16.994 5.048c-5.385 0-9.75 4.378-9.75 9.78 0 5.402 4.364 9.78 9.75 9.78h9.75V5.049h-9.75Z"></path>
  <path fill="#fff" stroke="#1D1D1B" stroke-miterlimit="10" stroke-width=".5" d="M26.654 24.608c5.385 0 9.75-4.378 9.75-9.78 0-5.401-4.365-9.78-9.75-9.78s-9.75 4.379-9.75 9.78c0 5.402 4.365 9.78 9.75 9.78Z"></path>
</svg>