<svg width="391" height="164" viewBox="0 0 391 164" fill="none" xmlns="http://www.w3.org/2000/svg">
<path d="M184.998 124.519C185.039 121.157 184.5 117.812 183.403 114.634C182.072 110.653 179.49 107.209 176.042 104.815C172.594 102.421 168.465 101.204 164.27 101.347C160.039 101.235 155.884 102.486 152.418 104.916C149.083 107.343 146.578 110.739 145.242 114.641C144.099 117.808 143.558 121.161 143.647 124.527H125.471C125.424 119.357 126.25 114.217 127.916 109.323C130.406 102.143 135.187 95.9811 141.522 91.7847C148.396 87.6128 156.282 85.4066 164.323 85.4066C172.364 85.4066 180.25 87.6128 187.124 91.7847C193.448 95.9677 198.197 102.139 200.621 109.323C202.38 114.196 203.245 119.347 203.173 124.527L184.998 124.519Z" fill="#449764"/>
<path d="M141.523 72.2743C135.161 68.0817 130.375 61.8928 127.917 54.6816C124.656 44.8081 124.656 34.1477 127.917 24.2742C130.407 17.0946 135.187 10.9322 141.523 6.73576C148.396 2.56386 156.283 0.357758 164.323 0.357758C172.364 0.357758 180.251 2.56386 187.124 6.73576C193.448 10.9189 198.197 17.0902 200.621 24.2742C202.381 29.1471 203.245 34.2976 203.173 39.4779C203.233 44.6572 202.369 49.8057 200.621 54.6816C198.139 61.8499 193.379 68.0093 187.068 72.2201C180.321 76.5891 172.409 78.8126 164.373 78.5978C156.296 78.8177 148.338 76.6154 141.523 72.2743ZM176.176 59.0875C179.567 56.7047 182.101 53.2942 183.404 49.3602C184.478 46.1758 185.017 42.8355 184.999 39.4748C185.04 36.1125 184.501 32.7682 183.404 29.5893C182.073 25.6084 179.491 22.1641 176.043 19.7697C172.595 17.3752 168.466 16.1588 164.271 16.3017C160.04 16.1896 155.884 17.4405 152.418 19.8699C149.084 22.2979 146.578 25.6944 145.243 29.5971C144.1 32.7641 143.559 36.1168 143.648 39.4825C143.583 42.8466 144.123 46.195 145.243 49.368C146.555 53.3322 149.121 56.7623 152.553 59.1409C155.986 61.5195 160.098 62.7177 164.271 62.5548C168.502 62.6632 172.661 61.4537 176.175 59.0937L176.176 59.0875Z" fill="#449764"/>
<path d="M8.44191 72.1167C3.47745 67.7956 0.995239 61.7363 0.995239 53.939V52.4512H18.1086V53.5139C18.0133 54.9445 18.2196 56.3793 18.714 57.7251C19.2084 59.071 19.98 60.298 20.9787 61.3267C23.2149 63.2492 26.1137 64.2218 29.0568 64.037C31.098 64.095 33.1278 63.7147 35.0095 62.9216C36.5154 62.2853 37.7805 61.1874 38.6227 59.7861C39.2627 58.5748 39.5916 57.2234 39.5799 55.8534C39.6013 54.6767 39.3462 53.5114 38.8353 52.4512C37.4907 50.1841 34.5498 48.5898 30.0125 47.6683L20.7646 45.8609C12.686 44.2309 7.19407 40.7584 4.28882 35.4433C2.40659 32.0291 1.45381 28.1806 1.52578 24.2826C1.41299 20.117 2.44199 15.9999 4.50136 12.3772C6.76925 8.48417 10.1822 5.38492 14.2752 3.50168C19.0397 1.31718 24.2387 0.245017 29.4788 0.366321C38.1956 0.366321 45.0517 2.50986 50.0472 6.79687C55.0426 11.0839 57.5404 17.1249 57.5404 24.9202V26.4095H40.3199V25.3531C40.4189 23.9305 40.2141 22.5032 39.7193 21.1658C39.2244 19.8284 38.4509 18.6117 37.4499 17.5961C35.198 15.7063 32.3057 14.7548 29.3717 14.9386C27.3489 14.8771 25.337 15.2577 23.4765 16.054C21.9885 16.7003 20.7405 17.7968 19.9082 19.1894C19.186 20.372 18.8172 21.7366 18.8455 23.1221C18.8148 24.2654 19.0708 25.3983 19.5902 26.4173C20.8655 28.6151 23.8064 30.1737 28.413 31.0932L37.5553 32.9006C45.5626 34.5316 51.1254 38.075 54.2437 43.5307C56.0981 46.9902 57.0144 50.8749 56.9012 54.7985C56.9956 58.9484 56.0064 63.0513 54.0311 66.7023C51.7194 70.5684 48.2916 73.6443 44.1984 75.525C39.4098 77.6844 34.1965 78.738 28.9451 78.6077C20.2346 78.6025 13.4002 76.4389 8.44191 72.1167Z" fill="#F9F7F0"/>
<path d="M120.052 25.9777C120.163 30.2915 119.098 34.554 116.97 38.3082C114.857 41.9809 111.716 44.9555 107.934 46.8656C103.746 48.9513 99.115 49.9904 94.4373 49.894H81.6818V76.6803H64.3527V2.27703H94.4342C99.1294 2.18439 103.778 3.22312 107.987 5.30539C111.754 7.16855 114.88 10.1102 116.97 13.7559C119.071 17.4811 120.136 21.7015 120.052 25.9777ZM102.514 25.9777C102.549 24.4095 102.144 22.8629 101.346 21.5128C100.602 20.2067 99.4683 19.1661 98.1032 18.5372C96.4531 17.7882 94.654 17.4247 92.8425 17.4745H81.6818V34.6949H92.8425C94.6598 34.7469 96.4633 34.3645 98.1032 33.5795C99.4651 32.92 100.596 31.8637 101.346 30.5496C102.154 29.1643 102.558 27.5808 102.514 25.9777Z" fill="#F9F7F0"/>
<path d="M250.69 47.134L266.423 76.685H246.12L231.027 47.7716H227.519V76.685H210.193V2.27701H241.232C245.808 2.16676 250.351 3.09333 254.519 4.98731C258.119 6.65278 261.123 9.3789 263.13 12.8001C265.011 16.2148 265.963 20.0631 265.893 23.9609C266.011 27.6822 265.09 31.3629 263.235 34.591C261.653 37.3016 259.304 39.4834 256.485 40.8617C253.166 42.5161 249.589 43.5946 245.909 44.0514L250.69 47.134ZM227.519 17.4776V34.0604H238.892C243.001 34.0604 245.8 32.7159 247.29 30.0268C248.014 28.69 248.38 27.1888 248.353 25.6689C248.405 24.1927 248.075 22.728 247.395 21.4166C245.836 18.7958 243.001 17.4848 238.892 17.4838L227.519 17.4776Z" fill="#F9F7F0"/>
<path d="M269.503 2.27702H330.938V18.2207H308.84V76.6833H291.514V18.2207H269.511L269.503 2.27702Z" fill="#F9F7F0"/>
<path d="M341.892 72.1146C336.928 67.7934 334.445 61.7341 334.445 53.9368V52.4491H351.559V53.5118C351.464 54.9424 351.67 56.3771 352.164 57.723C352.659 59.0688 353.43 60.2959 354.429 61.3246C356.666 63.2474 359.565 64.22 362.509 64.0349C364.55 64.0929 366.58 63.7125 368.461 62.9194C369.968 62.2835 371.234 61.1855 372.076 59.784C372.716 58.5725 373.044 57.2211 373.032 55.8513C373.054 54.6747 372.799 53.5094 372.289 52.4491C370.944 50.182 368.003 48.5876 363.466 47.6661L354.218 45.8588C346.14 44.2288 340.647 40.7562 337.742 35.4411C335.86 32.0269 334.907 28.1784 334.979 24.2805C334.866 20.1149 335.895 15.9978 337.955 12.3751C340.222 8.48196 343.635 5.38268 347.729 3.49953C352.493 1.31508 357.692 0.24292 362.932 0.364169C371.649 0.364169 378.505 2.50771 383.501 6.79472C388.496 11.0817 390.994 17.1228 390.995 24.918V26.4074H373.775V25.3509C373.874 23.9284 373.669 22.501 373.174 21.1637C372.679 19.8263 371.906 18.6095 370.905 17.594C368.653 15.7042 365.761 14.7526 362.827 14.9364C360.804 14.8749 358.792 15.2555 356.932 16.0518C355.444 16.6981 354.196 17.7947 353.363 19.1872C352.641 20.3698 352.272 21.7344 352.301 23.1199C352.27 24.2633 352.526 25.3962 353.045 26.4151C354.32 28.6129 357.261 30.1715 361.868 31.091L371.01 32.8984C379.018 34.5295 384.58 38.0728 387.698 43.5286C389.553 46.9881 390.469 50.8728 390.356 54.7963C390.451 58.9463 389.461 63.0491 387.486 66.7001C385.174 70.5662 381.747 73.642 377.653 75.5229C372.864 77.6824 367.65 78.736 362.399 78.6055C353.688 78.6003 346.853 76.4367 341.892 72.1146Z" fill="#F9F7F0"/>
<path d="M65.5736 157.258C59.3124 153.02 54.5945 146.866 52.1276 139.72C48.8667 129.846 48.8667 119.186 52.1276 109.312C54.601 102.155 59.3392 95.9976 65.6248 91.7737C71.8904 87.4362 79.3725 85.2028 86.9905 85.396C92.8329 85.2832 98.6263 86.4818 103.944 88.9037C108.875 91.0725 113.107 94.5685 116.168 99.0017C119.242 103.582 121.023 108.907 121.323 114.415H103.255C103.03 112.548 102.434 110.746 101.503 109.112C100.573 107.479 99.3255 106.047 97.8349 104.902C94.7681 102.446 90.9181 101.179 86.9921 101.334C83.2159 101.31 79.5432 102.568 76.5745 104.902C73.2653 107.343 70.7804 110.736 69.452 114.627C68.3089 117.794 67.7681 121.147 67.8573 124.513C67.7921 127.877 68.3322 131.225 69.452 134.398C70.7355 138.255 73.1874 141.617 76.4675 144.017C79.4251 146.296 83.0447 147.548 86.7781 147.585C90.4902 147.577 94.0959 146.344 97.0359 144.077C99.9201 141.714 101.769 138.319 102.191 134.614H120.262C119.933 139.994 118.212 145.195 115.266 149.709C112.307 154.149 108.19 157.695 103.361 159.965C98.1325 162.503 92.3756 163.76 86.5655 163.633C79.0675 163.8 71.7122 161.567 65.5736 157.258Z" fill="#F9F7F0"/>
<path d="M257.175 141.84V87.3151H272.801V161.723H247.609L229.751 118.566L225.926 107.716V161.723H210.193V87.3151H235.491L253.137 130.365L257.175 141.84Z" fill="#F9F7F0"/>
<path d="M47.8769 102.516V87.3119H1V102.516H15.7739V146.522H1V161.726H47.8753V146.522H33.0952V102.516H47.8769Z" fill="#F9F7F0"/>
<path d="M184.997 124.466C184.997 124.485 184.997 124.5 184.997 124.519C185.015 127.88 184.476 131.22 183.402 134.405C182.099 138.339 179.565 141.749 176.174 144.132C172.66 146.49 168.499 147.697 164.268 147.587C160.096 147.749 155.983 146.551 152.551 144.173C149.119 141.794 146.553 138.364 145.241 134.4C144.121 131.227 143.581 127.878 143.646 124.514C143.646 124.496 143.646 124.48 143.646 124.462H125.468C125.415 129.647 126.242 134.804 127.913 139.713C130.372 146.924 135.158 153.112 141.519 157.305C148.335 161.647 156.294 163.85 164.372 163.63C172.407 163.844 180.319 161.621 187.066 157.252C193.377 153.041 198.136 146.882 200.619 139.713C202.371 134.822 203.235 129.657 203.17 124.462H184.997V124.466Z" fill="#F9F7F0"/>
</svg>
